<svg xmlns="http://www.w3.org/2000/svg" width="468" height="468" viewBox="0 0 468 468"><defs><pattern id="circles" width="4" height="4" patternUnits="userSpaceOnUse"><circle cx="1" cy="1" r=".5" fill="#222"/></pattern></defs><g fill="none" stroke="#222" stroke-width="1"><circle cx="122.445" cy="440.672" r="3.502" fill="#222"/><circle cx="122.445" cy="440.672" r="23.47" fill="none"/><circle cx="303.627" cy="336.498" r="1.129" fill="#222"/><circle cx="303.627" cy="336.498" r="18.254" fill="#222"/><circle cx="206.923" cy="199.504" r="13.579" fill="none"/><circle cx="206.923" cy="199.504" r="50.854" fill="none"/><circle cx="296.31" cy="68.548" r="23.342" fill="#222"/><circle cx="296.31" cy="68.548" r="40.667" fill="none"/><circle cx="217.617" cy="318.03" r="28.642" fill="none"/><circle cx="217.617" cy="318.03" r="31.753" fill="none"/><circle cx="139.901" cy="378.813" r="1.494" fill="none"/><circle cx="139.901" cy="378.813" r="2.83" fill="none"/><circle cx="410.265" cy="74.036" r="2.744" fill="none"/><circle cx="410.265" cy="74.036" r="29.901" fill="none"/><polyline fill="url(#circles)" stroke="#222" points="122.445 440.672 303.627 336.498 206.923 199.504 296.31 68.548 217.617 318.03 139.901 378.813 410.265 74.036"/></g></svg>