<svg xmlns="http://www.w3.org/2000/svg" width="468" height="468" viewBox="0 0 468 468"><defs><pattern id="circles" width="4" height="4" patternUnits="userSpaceOnUse"><circle cx="1" cy="1" r=".5" fill="#222"/></pattern></defs><g fill="none" stroke="#222" stroke-width="1"><line x1="0" x2="11.074" y1="11.074" y2="0"/><line x1="0" x2="11.074" y1="44.297" y2="33.223"/><line x1="0" x2="11.074" y1="44.297" y2="55.372"/><line x1="0" x2="11.074" y1="66.446" y2="55.372"/><line x1="0" x2="11.074" y1="77.521" y2="66.446"/><line x1="0" x2="11.074" y1="88.595" y2="77.521"/><line x1="0" x2="11.074" y1="99.669" y2="88.595"/><line x1="0" x2="11.074" y1="99.669" y2="110.744"/><line x1="0" x2="11.074" y1="132.892" y2="121.818"/><line x1="0" x2="11.074" y1="155.041" y2="143.967"/><line x1="0" x2="11.074" y1="155.041" y2="166.116"/><line x1="0" x2="11.074" y1="166.116" y2="177.19"/><line x1="0" x2="11.074" y1="188.264" y2="177.19"/><line x1="0" x2="11.074" y1="188.264" y2="199.339"/><line x1="0" x2="11.074" y1="210.413" y2="199.339"/><line x1="0" x2="11.074" y1="232.562" y2="243.636"/><line x1="0" x2="11.074" y1="243.636" y2="254.71"/><line x1="0" x2="11.074" y1="265.785" y2="254.71"/><line x1="0" x2="11.074" y1="276.859" y2="265.785"/><line x1="0" x2="11.074" y1="276.859" y2="287.934"/><line x1="0" x2="11.074" y1="299.008" y2="287.934"/><line x1="0" x2="11.074" y1="343.305" y2="354.38"/><line x1="0" x2="11.074" y1="365.454" y2="354.38"/><line x1="0" x2="11.074" y1="365.454" y2="376.529"/><line x1="0" x2="11.074" y1="409.752" y2="398.677"/><line x1="0" x2="11.074" y1="431.9" y2="442.975"/><line x1="0" x2="11.074" y1="465.124" y2="476.198"/><line x1="11.074" x2="22.149" y1="11.074" y2="0"/><line x1="11.074" x2="22.149" y1="22.149" y2="11.074"/><line x1="11.074" x2="22.149" y1="22.149" y2="33.223"/><line x1="11.074" x2="22.149" y1="44.297" y2="33.223"/><line x1="11.074" x2="22.149" y1="55.372" y2="44.297"/><line x1="11.074" x2="22.149" y1="55.372" y2="66.446"/><line x1="11.074" x2="22.149" y1="77.521" y2="66.446"/><line x1="11.074" x2="22.149" y1="88.595" y2="99.669"/><line x1="11.074" x2="22.149" y1="132.892" y2="121.818"/><line x1="11.074" x2="22.149" y1="143.967" y2="155.041"/><line x1="11.074" x2="22.149" y1="166.116" y2="177.19"/><line x1="11.074" x2="22.149" y1="188.264" y2="177.19"/><line x1="11.074" x2="22.149" y1="188.264" y2="199.339"/><line x1="11.074" x2="22.149" y1="221.487" y2="210.413"/><line x1="11.074" x2="22.149" y1="221.487" y2="232.562"/><line x1="11.074" x2="22.149" y1="243.636" y2="232.562"/><line x1="11.074" x2="22.149" y1="254.71" y2="243.636"/><line x1="11.074" x2="22.149" y1="276.859" y2="265.785"/><line x1="11.074" x2="22.149" y1="287.934" y2="276.859"/><line x1="11.074" x2="22.149" y1="299.008" y2="287.934"/><line x1="11.074" x2="22.149" y1="299.008" y2="310.082"/><line x1="11.074" x2="22.149" y1="332.231" y2="321.157"/><line x1="11.074" x2="22.149" y1="354.38" y2="343.305"/><line x1="11.074" x2="22.149" y1="376.529" y2="365.454"/><line x1="11.074" x2="22.149" y1="387.603" y2="398.677"/><line x1="11.074" x2="22.149" y1="431.9" y2="442.975"/><line x1="11.074" x2="22.149" y1="454.049" y2="442.975"/><line x1="11.074" x2="22.149" y1="465.124" y2="454.049"/><line x1="11.074" x2="22.149" y1="465.124" y2="476.198"/><line x1="22.149" x2="33.223" y1="11.074" y2="22.149"/><line x1="22.149" x2="33.223" y1="33.223" y2="22.149"/><line x1="22.149" x2="33.223" y1="66.446" y2="77.521"/><line x1="22.149" x2="33.223" y1="88.595" y2="77.521"/><line x1="22.149" x2="33.223" y1="110.744" y2="99.669"/><line x1="22.149" x2="33.223" y1="121.818" y2="110.744"/><line x1="22.149" x2="33.223" y1="121.818" y2="132.892"/><line x1="22.149" x2="33.223" y1="132.892" y2="143.967"/><line x1="22.149" x2="33.223" y1="155.041" y2="143.967"/><line x1="22.149" x2="33.223" y1="166.116" y2="177.19"/><line x1="22.149" x2="33.223" y1="199.339" y2="188.264"/><line x1="22.149" x2="33.223" y1="210.413" y2="221.487"/><line x1="22.149" x2="33.223" y1="221.487" y2="232.562"/><line x1="22.149" x2="33.223" y1="254.71" y2="265.785"/><line x1="22.149" x2="33.223" y1="287.934" y2="299.008"/><line x1="22.149" x2="33.223" y1="310.082" y2="299.008"/><line x1="22.149" x2="33.223" y1="321.157" y2="310.082"/><line x1="22.149" x2="33.223" y1="332.231" y2="343.305"/><line x1="22.149" x2="33.223" y1="354.38" y2="343.305"/><line x1="22.149" x2="33.223" y1="354.38" y2="365.454"/><line x1="22.149" x2="33.223" y1="365.454" y2="376.529"/><line x1="22.149" x2="33.223" y1="376.529" y2="387.603"/><line x1="22.149" x2="33.223" y1="387.603" y2="398.677"/><line x1="22.149" x2="33.223" y1="409.752" y2="398.677"/><line x1="22.149" x2="33.223" y1="420.826" y2="409.752"/><line x1="22.149" x2="33.223" y1="420.826" y2="431.9"/><line x1="22.149" x2="33.223" y1="442.975" y2="431.9"/><line x1="22.149" x2="33.223" y1="465.124" y2="454.049"/><line x1="22.149" x2="33.223" y1="476.198" y2="465.124"/><line x1="33.223" x2="44.297" y1="0" y2="11.074"/><line x1="33.223" x2="44.297" y1="33.223" y2="22.149"/><line x1="33.223" x2="44.297" y1="44.297" y2="55.372"/><line x1="33.223" x2="44.297" y1="66.446" y2="77.521"/><line x1="33.223" x2="44.297" y1="88.595" y2="77.521"/><line x1="33.223" x2="44.297" y1="99.669" y2="88.595"/><line x1="33.223" x2="44.297" y1="99.669" y2="110.744"/><line x1="33.223" x2="44.297" y1="132.892" y2="121.818"/><line x1="33.223" x2="44.297" y1="155.041" y2="166.116"/><line x1="33.223" x2="44.297" y1="166.116" y2="177.19"/><line x1="33.223" x2="44.297" y1="177.19" y2="188.264"/><line x1="33.223" x2="44.297" y1="232.562" y2="221.487"/><line x1="33.223" x2="44.297" y1="243.636" y2="232.562"/><line x1="33.223" x2="44.297" y1="243.636" y2="254.71"/><line x1="33.223" x2="44.297" y1="254.71" y2="265.785"/><line x1="33.223" x2="44.297" y1="276.859" y2="265.785"/><line x1="33.223" x2="44.297" y1="276.859" y2="287.934"/><line x1="33.223" x2="44.297" y1="287.934" y2="299.008"/><line x1="33.223" x2="44.297" y1="310.082" y2="299.008"/><line x1="33.223" x2="44.297" y1="310.082" y2="321.157"/><line x1="33.223" x2="44.297" y1="332.231" y2="321.157"/><line x1="33.223" x2="44.297" y1="343.305" y2="332.231"/><line x1="33.223" x2="44.297" y1="354.38" y2="343.305"/><line x1="33.223" x2="44.297" y1="376.529" y2="365.454"/><line x1="33.223" x2="44.297" y1="376.529" y2="387.603"/><line x1="33.223" x2="44.297" y1="409.752" y2="398.677"/><line x1="33.223" x2="44.297" y1="420.826" y2="409.752"/><line x1="33.223" x2="44.297" y1="442.975" y2="454.049"/><line x1="33.223" x2="44.297" y1="476.198" y2="465.124"/><line x1="44.297" x2="55.372" y1="0" y2="11.074"/><line x1="44.297" x2="55.372" y1="11.074" y2="22.149"/><line x1="44.297" x2="55.372" y1="22.149" y2="33.223"/><line x1="44.297" x2="55.372" y1="44.297" y2="33.223"/><line x1="44.297" x2="55.372" y1="66.446" y2="55.372"/><line x1="44.297" x2="55.372" y1="66.446" y2="77.521"/><line x1="44.297" x2="55.372" y1="88.595" y2="77.521"/><line x1="44.297" x2="55.372" y1="88.595" y2="99.669"/><line x1="44.297" x2="55.372" y1="110.744" y2="99.669"/><line x1="44.297" x2="55.372" y1="121.818" y2="132.892"/><line x1="44.297" x2="55.372" y1="143.967" y2="132.892"/><line x1="44.297" x2="55.372" y1="155.041" y2="166.116"/><line x1="44.297" x2="55.372" y1="177.19" y2="188.264"/><line x1="44.297" x2="55.372" y1="188.264" y2="199.339"/><line x1="44.297" x2="55.372" y1="210.413" y2="221.487"/><line x1="44.297" x2="55.372" y1="232.562" y2="221.487"/><line x1="44.297" x2="55.372" y1="243.636" y2="232.562"/><line x1="44.297" x2="55.372" y1="254.71" y2="243.636"/><line x1="44.297" x2="55.372" y1="276.859" y2="287.934"/><line x1="44.297" x2="55.372" y1="299.008" y2="287.934"/><line x1="44.297" x2="55.372" y1="299.008" y2="310.082"/><line x1="44.297" x2="55.372" y1="321.157" y2="310.082"/><line x1="44.297" x2="55.372" y1="321.157" y2="332.231"/><line x1="44.297" x2="55.372" y1="354.38" y2="343.305"/><line x1="44.297" x2="55.372" y1="354.38" y2="365.454"/><line x1="44.297" x2="55.372" y1="365.454" y2="376.529"/><line x1="44.297" x2="55.372" y1="409.752" y2="420.826"/><line x1="44.297" x2="55.372" y1="420.826" y2="431.9"/><line x1="44.297" x2="55.372" y1="442.975" y2="431.9"/><line x1="44.297" x2="55.372" y1="454.049" y2="442.975"/><line x1="44.297" x2="55.372" y1="476.198" y2="465.124"/><line x1="55.372" x2="66.446" y1="33.223" y2="22.149"/><line x1="55.372" x2="66.446" y1="55.372" y2="44.297"/><line x1="55.372" x2="66.446" y1="66.446" y2="55.372"/><line x1="55.372" x2="66.446" y1="77.521" y2="66.446"/><line x1="55.372" x2="66.446" y1="88.595" y2="77.521"/><line x1="55.372" x2="66.446" y1="99.669" y2="110.744"/><line x1="55.372" x2="66.446" y1="110.744" y2="121.818"/><line x1="55.372" x2="66.446" y1="121.818" y2="132.892"/><line x1="55.372" x2="66.446" y1="155.041" y2="143.967"/><line x1="55.372" x2="66.446" y1="166.116" y2="155.041"/><line x1="55.372" x2="66.446" y1="166.116" y2="177.19"/><line x1="55.372" x2="66.446" y1="177.19" y2="188.264"/><line x1="55.372" x2="66.446" y1="199.339" y2="188.264"/><line x1="55.372" x2="66.446" y1="199.339" y2="210.413"/><line x1="55.372" x2="66.446" y1="221.487" y2="210.413"/><line x1="55.372" x2="66.446" y1="232.562" y2="221.487"/><line x1="55.372" x2="66.446" y1="243.636" y2="232.562"/><line x1="55.372" x2="66.446" y1="254.71" y2="265.785"/><line x1="55.372" x2="66.446" y1="287.934" y2="276.859"/><line x1="55.372" x2="66.446" y1="287.934" y2="299.008"/><line x1="55.372" x2="66.446" y1="332.231" y2="321.157"/><line x1="55.372" x2="66.446" y1="343.305" y2="332.231"/><line x1="55.372" x2="66.446" y1="365.454" y2="354.38"/><line x1="55.372" x2="66.446" y1="365.454" y2="376.529"/><line x1="55.372" x2="66.446" y1="387.603" y2="376.529"/><line x1="55.372" x2="66.446" y1="398.677" y2="387.603"/><line x1="55.372" x2="66.446" y1="398.677" y2="409.752"/><line x1="55.372" x2="66.446" y1="420.826" y2="409.752"/><line x1="55.372" x2="66.446" y1="431.9" y2="442.975"/><line x1="55.372" x2="66.446" y1="442.975" y2="454.049"/><line x1="55.372" x2="66.446" y1="454.049" y2="465.124"/><line x1="55.372" x2="66.446" y1="476.198" y2="465.124"/><line x1="66.446" x2="77.521" y1="0" y2="11.074"/><line x1="66.446" x2="77.521" y1="22.149" y2="11.074"/><line x1="66.446" x2="77.521" y1="55.372" y2="44.297"/><line x1="66.446" x2="77.521" y1="55.372" y2="66.446"/><line x1="66.446" x2="77.521" y1="77.521" y2="66.446"/><line x1="66.446" x2="77.521" y1="88.595" y2="77.521"/><line x1="66.446" x2="77.521" y1="88.595" y2="99.669"/><line x1="66.446" x2="77.521" y1="132.892" y2="143.967"/><line x1="66.446" x2="77.521" y1="155.041" y2="166.116"/><line x1="66.446" x2="77.521" y1="177.19" y2="188.264"/><line x1="66.446" x2="77.521" y1="199.339" y2="188.264"/><line x1="66.446" x2="77.521" y1="210.413" y2="199.339"/><line x1="66.446" x2="77.521" y1="232.562" y2="221.487"/><line x1="66.446" x2="77.521" y1="232.562" y2="243.636"/><line x1="66.446" x2="77.521" y1="254.71" y2="243.636"/><line x1="66.446" x2="77.521" y1="254.71" y2="265.785"/><line x1="66.446" x2="77.521" y1="287.934" y2="299.008"/><line x1="66.446" x2="77.521" y1="321.157" y2="310.082"/><line x1="66.446" x2="77.521" y1="332.231" y2="321.157"/><line x1="66.446" x2="77.521" y1="354.38" y2="343.305"/><line x1="66.446" x2="77.521" y1="365.454" y2="376.529"/><line x1="66.446" x2="77.521" y1="387.603" y2="398.677"/><line x1="66.446" x2="77.521" y1="420.826" y2="409.752"/><line x1="66.446" x2="77.521" y1="431.9" y2="442.975"/><line x1="66.446" x2="77.521" y1="442.975" y2="454.049"/><line x1="66.446" x2="77.521" y1="465.124" y2="454.049"/><line x1="77.521" x2="88.595" y1="11.074" y2="0"/><line x1="77.521" x2="88.595" y1="11.074" y2="22.149"/><line x1="77.521" x2="88.595" y1="55.372" y2="44.297"/><line x1="77.521" x2="88.595" y1="66.446" y2="77.521"/><line x1="77.521" x2="88.595" y1="88.595" y2="77.521"/><line x1="77.521" x2="88.595" y1="110.744" y2="99.669"/><line x1="77.521" x2="88.595" y1="121.818" y2="132.892"/><line x1="77.521" x2="88.595" y1="132.892" y2="143.967"/><line x1="77.521" x2="88.595" y1="166.116" y2="155.041"/><line x1="77.521" x2="88.595" y1="177.19" y2="166.116"/><line x1="77.521" x2="88.595" y1="177.19" y2="188.264"/><line x1="77.521" x2="88.595" y1="210.413" y2="199.339"/><line x1="77.521" x2="88.595" y1="221.487" y2="210.413"/><line x1="77.521" x2="88.595" y1="221.487" y2="232.562"/><line x1="77.521" x2="88.595" y1="243.636" y2="254.71"/><line x1="77.521" x2="88.595" y1="265.785" y2="254.71"/><line x1="77.521" x2="88.595" y1="265.785" y2="276.859"/><line x1="77.521" x2="88.595" y1="287.934" y2="276.859"/><line x1="77.521" x2="88.595" y1="299.008" y2="310.082"/><line x1="77.521" x2="88.595" y1="343.305" y2="354.38"/><line x1="77.521" x2="88.595" y1="376.529" y2="365.454"/><line x1="77.521" x2="88.595" y1="398.677" y2="409.752"/><line x1="77.521" x2="88.595" y1="454.049" y2="442.975"/><line x1="88.595" x2="99.669" y1="11.074" y2="22.149"/><line x1="88.595" x2="99.669" y1="33.223" y2="22.149"/><line x1="88.595" x2="99.669" y1="55.372" y2="44.297"/><line x1="88.595" x2="99.669" y1="55.372" y2="66.446"/><line x1="88.595" x2="99.669" y1="77.521" y2="66.446"/><line x1="88.595" x2="99.669" y1="132.892" y2="143.967"/><line x1="88.595" x2="99.669" y1="166.116" y2="155.041"/><line x1="88.595" x2="99.669" y1="177.19" y2="188.264"/><line x1="88.595" x2="99.669" y1="221.487" y2="210.413"/><line x1="88.595" x2="99.669" y1="221.487" y2="232.562"/><line x1="88.595" x2="99.669" y1="243.636" y2="254.71"/><line x1="88.595" x2="99.669" y1="254.71" y2="265.785"/><line x1="88.595" x2="99.669" y1="265.785" y2="276.859"/><line x1="88.595" x2="99.669" y1="276.859" y2="287.934"/><line x1="88.595" x2="99.669" y1="299.008" y2="287.934"/><line x1="88.595" x2="99.669" y1="299.008" y2="310.082"/><line x1="88.595" x2="99.669" y1="310.082" y2="321.157"/><line x1="88.595" x2="99.669" y1="332.231" y2="321.157"/><line x1="88.595" x2="99.669" y1="343.305" y2="332.231"/><line x1="88.595" x2="99.669" y1="354.38" y2="365.454"/><line x1="88.595" x2="99.669" y1="376.529" y2="365.454"/><line x1="88.595" x2="99.669" y1="376.529" y2="387.603"/><line x1="88.595" x2="99.669" y1="398.677" y2="409.752"/><line x1="88.595" x2="99.669" y1="420.826" y2="409.752"/><line x1="88.595" x2="99.669" y1="420.826" y2="431.9"/><line x1="88.595" x2="99.669" y1="442.975" y2="431.9"/><line x1="99.669" x2="110.744" y1="22.149" y2="11.074"/><line x1="99.669" x2="110.744" y1="33.223" y2="22.149"/><line x1="99.669" x2="110.744" y1="77.521" y2="88.595"/><line x1="99.669" x2="110.744" y1="99.669" y2="88.595"/><line x1="99.669" x2="110.744" y1="121.818" y2="110.744"/><line x1="99.669" x2="110.744" y1="121.818" y2="132.892"/><line x1="99.669" x2="110.744" y1="143.967" y2="132.892"/><line x1="99.669" x2="110.744" y1="155.041" y2="166.116"/><line x1="99.669" x2="110.744" y1="166.116" y2="177.19"/><line x1="99.669" x2="110.744" y1="188.264" y2="199.339"/><line x1="99.669" x2="110.744" y1="210.413" y2="221.487"/><line x1="99.669" x2="110.744" y1="243.636" y2="232.562"/><line x1="99.669" x2="110.744" y1="243.636" y2="254.71"/><line x1="99.669" x2="110.744" y1="254.71" y2="265.785"/><line x1="99.669" x2="110.744" y1="265.785" y2="276.859"/><line x1="99.669" x2="110.744" y1="287.934" y2="276.859"/><line x1="99.669" x2="110.744" y1="287.934" y2="299.008"/><line x1="99.669" x2="110.744" y1="299.008" y2="310.082"/><line x1="99.669" x2="110.744" y1="310.082" y2="321.157"/><line x1="99.669" x2="110.744" y1="343.305" y2="354.38"/><line x1="99.669" x2="110.744" y1="376.529" y2="365.454"/><line x1="99.669" x2="110.744" y1="376.529" y2="387.603"/><line x1="99.669" x2="110.744" y1="387.603" y2="398.677"/><line x1="99.669" x2="110.744" y1="409.752" y2="398.677"/><line x1="99.669" x2="110.744" y1="409.752" y2="420.826"/><line x1="99.669" x2="110.744" y1="431.9" y2="420.826"/><line x1="99.669" x2="110.744" y1="431.9" y2="442.975"/><line x1="99.669" x2="110.744" y1="454.049" y2="442.975"/><line x1="99.669" x2="110.744" y1="465.124" y2="454.049"/><line x1="110.744" x2="121.818" y1="0" y2="11.074"/><line x1="110.744" x2="121.818" y1="11.074" y2="22.149"/><line x1="110.744" x2="121.818" y1="22.149" y2="33.223"/><line x1="110.744" x2="121.818" y1="44.297" y2="55.372"/><line x1="110.744" x2="121.818" y1="55.372" y2="66.446"/><line x1="110.744" x2="121.818" y1="66.446" y2="77.521"/><line x1="110.744" x2="121.818" y1="88.595" y2="77.521"/><line x1="110.744" x2="121.818" y1="132.892" y2="121.818"/><line x1="110.744" x2="121.818" y1="143.967" y2="132.892"/><line x1="110.744" x2="121.818" y1="155.041" y2="143.967"/><line x1="110.744" x2="121.818" y1="166.116" y2="155.041"/><line x1="110.744" x2="121.818" y1="166.116" y2="177.19"/><line x1="110.744" x2="121.818" y1="188.264" y2="199.339"/><line x1="110.744" x2="121.818" y1="210.413" y2="199.339"/><line x1="110.744" x2="121.818" y1="210.413" y2="221.487"/><line x1="110.744" x2="121.818" y1="232.562" y2="221.487"/><line x1="110.744" x2="121.818" y1="243.636" y2="232.562"/><line x1="110.744" x2="121.818" y1="243.636" y2="254.71"/><line x1="110.744" x2="121.818" y1="265.785" y2="254.71"/><line x1="110.744" x2="121.818" y1="265.785" y2="276.859"/><line x1="110.744" x2="121.818" y1="287.934" y2="276.859"/><line x1="110.744" x2="121.818" y1="310.082" y2="299.008"/><line x1="110.744" x2="121.818" y1="332.231" y2="321.157"/><line x1="110.744" x2="121.818" y1="409.752" y2="398.677"/><line x1="110.744" x2="121.818" y1="409.752" y2="420.826"/><line x1="110.744" x2="121.818" y1="431.9" y2="420.826"/><line x1="110.744" x2="121.818" y1="431.9" y2="442.975"/><line x1="110.744" x2="121.818" y1="442.975" y2="454.049"/><line x1="110.744" x2="121.818" y1="454.049" y2="465.124"/><line x1="121.818" x2="132.892" y1="22.149" y2="33.223"/><line x1="121.818" x2="132.892" y1="33.223" y2="44.297"/><line x1="121.818" x2="132.892" y1="55.372" y2="44.297"/><line x1="121.818" x2="132.892" y1="77.521" y2="66.446"/><line x1="121.818" x2="132.892" y1="88.595" y2="77.521"/><line x1="121.818" x2="132.892" y1="88.595" y2="99.669"/><line x1="121.818" x2="132.892" y1="99.669" y2="110.744"/><line x1="121.818" x2="132.892" y1="110.744" y2="121.818"/><line x1="121.818" x2="132.892" y1="143.967" y2="132.892"/><line x1="121.818" x2="132.892" y1="166.116" y2="155.041"/><line x1="121.818" x2="132.892" y1="166.116" y2="177.19"/><line x1="121.818" x2="132.892" y1="177.19" y2="188.264"/><line x1="121.818" x2="132.892" y1="199.339" y2="188.264"/><line x1="121.818" x2="132.892" y1="210.413" y2="199.339"/><line x1="121.818" x2="132.892" y1="210.413" y2="221.487"/><line x1="121.818" x2="132.892" y1="221.487" y2="232.562"/><line x1="121.818" x2="132.892" y1="232.562" y2="243.636"/><line x1="121.818" x2="132.892" y1="276.859" y2="287.934"/><line x1="121.818" x2="132.892" y1="310.082" y2="299.008"/><line x1="121.818" x2="132.892" y1="310.082" y2="321.157"/><line x1="121.818" x2="132.892" y1="354.38" y2="343.305"/><line x1="121.818" x2="132.892" y1="365.454" y2="376.529"/><line x1="121.818" x2="132.892" y1="376.529" y2="387.603"/><line x1="121.818" x2="132.892" y1="398.677" y2="387.603"/><line x1="121.818" x2="132.892" y1="409.752" y2="398.677"/><line x1="121.818" x2="132.892" y1="409.752" y2="420.826"/><line x1="121.818" x2="132.892" y1="431.9" y2="420.826"/><line x1="121.818" x2="132.892" y1="442.975" y2="431.9"/><line x1="121.818" x2="132.892" y1="442.975" y2="454.049"/><line x1="121.818" x2="132.892" y1="465.124" y2="454.049"/><line x1="132.892" x2="143.967" y1="0" y2="11.074"/><line x1="132.892" x2="143.967" y1="44.297" y2="33.223"/><line x1="132.892" x2="143.967" y1="44.297" y2="55.372"/><line x1="132.892" x2="143.967" y1="77.521" y2="66.446"/><line x1="132.892" x2="143.967" y1="77.521" y2="88.595"/><line x1="132.892" x2="143.967" y1="99.669" y2="88.595"/><line x1="132.892" x2="143.967" y1="99.669" y2="110.744"/><line x1="132.892" x2="143.967" y1="110.744" y2="121.818"/><line x1="132.892" x2="143.967" y1="121.818" y2="132.892"/><line x1="132.892" x2="143.967" y1="143.967" y2="132.892"/><line x1="132.892" x2="143.967" y1="155.041" y2="166.116"/><line x1="132.892" x2="143.967" y1="188.264" y2="199.339"/><line x1="132.892" x2="143.967" y1="199.339" y2="210.413"/><line x1="132.892" x2="143.967" y1="210.413" y2="221.487"/><line x1="132.892" x2="143.967" y1="232.562" y2="221.487"/><line x1="132.892" x2="143.967" y1="254.71" y2="243.636"/><line x1="132.892" x2="143.967" y1="265.785" y2="254.71"/><line x1="132.892" x2="143.967" y1="276.859" y2="265.785"/><line x1="132.892" x2="143.967" y1="299.008" y2="310.082"/><line x1="132.892" x2="143.967" y1="310.082" y2="321.157"/><line x1="132.892" x2="143.967" y1="332.231" y2="321.157"/><line x1="132.892" x2="143.967" y1="332.231" y2="343.305"/><line x1="132.892" x2="143.967" y1="365.454" y2="376.529"/><line x1="132.892" x2="143.967" y1="398.677" y2="387.603"/><line x1="132.892" x2="143.967" y1="420.826" y2="431.9"/><line x1="132.892" x2="143.967" y1="431.9" y2="442.975"/><line x1="132.892" x2="143.967" y1="454.049" y2="442.975"/><line x1="132.892" x2="143.967" y1="454.049" y2="465.124"/><line x1="132.892" x2="143.967" y1="476.198" y2="465.124"/><line x1="143.967" x2="155.041" y1="0" y2="11.074"/><line x1="143.967" x2="155.041" y1="11.074" y2="22.149"/><line x1="143.967" x2="155.041" y1="22.149" y2="33.223"/><line x1="143.967" x2="155.041" y1="55.372" y2="66.446"/><line x1="143.967" x2="155.041" y1="88.595" y2="77.521"/><line x1="143.967" x2="155.041" y1="88.595" y2="99.669"/><line x1="143.967" x2="155.041" y1="110.744" y2="121.818"/><line x1="143.967" x2="155.041" y1="132.892" y2="121.818"/><line x1="143.967" x2="155.041" y1="155.041" y2="143.967"/><line x1="143.967" x2="155.041" y1="166.116" y2="155.041"/><line x1="143.967" x2="155.041" y1="166.116" y2="177.19"/><line x1="143.967" x2="155.041" y1="177.19" y2="188.264"/><line x1="143.967" x2="155.041" y1="188.264" y2="199.339"/><line x1="143.967" x2="155.041" y1="210.413" y2="199.339"/><line x1="143.967" x2="155.041" y1="221.487" y2="210.413"/><line x1="143.967" x2="155.041" y1="221.487" y2="232.562"/><line x1="143.967" x2="155.041" y1="254.71" y2="243.636"/><line x1="143.967" x2="155.041" y1="276.859" y2="265.785"/><line x1="143.967" x2="155.041" y1="276.859" y2="287.934"/><line x1="143.967" x2="155.041" y1="287.934" y2="299.008"/><line x1="143.967" x2="155.041" y1="299.008" y2="310.082"/><line x1="143.967" x2="155.041" y1="332.231" y2="321.157"/><line x1="143.967" x2="155.041" y1="354.38" y2="343.305"/><line x1="143.967" x2="155.041" y1="354.38" y2="365.454"/><line x1="143.967" x2="155.041" y1="376.529" y2="365.454"/><line x1="143.967" x2="155.041" y1="409.752" y2="398.677"/><line x1="143.967" x2="155.041" y1="420.826" y2="409.752"/><line x1="143.967" x2="155.041" y1="420.826" y2="431.9"/><line x1="143.967" x2="155.041" y1="454.049" y2="442.975"/><line x1="143.967" x2="155.041" y1="454.049" y2="465.124"/><line x1="155.041" x2="166.116" y1="11.074" y2="0"/><line x1="155.041" x2="166.116" y1="11.074" y2="22.149"/><line x1="155.041" x2="166.116" y1="22.149" y2="33.223"/><line x1="155.041" x2="166.116" y1="55.372" y2="44.297"/><line x1="155.041" x2="166.116" y1="66.446" y2="55.372"/><line x1="155.041" x2="166.116" y1="77.521" y2="66.446"/><line x1="155.041" x2="166.116" y1="99.669" y2="88.595"/><line x1="155.041" x2="166.116" y1="110.744" y2="99.669"/><line x1="155.041" x2="166.116" y1="121.818" y2="132.892"/><line x1="155.041" x2="166.116" y1="199.339" y2="188.264"/><line x1="155.041" x2="166.116" y1="199.339" y2="210.413"/><line x1="155.041" x2="166.116" y1="221.487" y2="210.413"/><line x1="155.041" x2="166.116" y1="221.487" y2="232.562"/><line x1="155.041" x2="166.116" y1="243.636" y2="232.562"/><line x1="155.041" x2="166.116" y1="254.71" y2="265.785"/><line x1="155.041" x2="166.116" y1="276.859" y2="287.934"/><line x1="155.041" x2="166.116" y1="299.008" y2="287.934"/><line x1="155.041" x2="166.116" y1="310.082" y2="299.008"/><line x1="155.041" x2="166.116" y1="310.082" y2="321.157"/><line x1="155.041" x2="166.116" y1="343.305" y2="332.231"/><line x1="155.041" x2="166.116" y1="343.305" y2="354.38"/><line x1="155.041" x2="166.116" y1="354.38" y2="365.454"/><line x1="155.041" x2="166.116" y1="387.603" y2="376.529"/><line x1="155.041" x2="166.116" y1="398.677" y2="409.752"/><line x1="155.041" x2="166.116" y1="409.752" y2="420.826"/><line x1="155.041" x2="166.116" y1="431.9" y2="420.826"/><line x1="155.041" x2="166.116" y1="442.975" y2="454.049"/><line x1="166.116" x2="177.19" y1="0" y2="11.074"/><line x1="166.116" x2="177.19" y1="22.149" y2="11.074"/><line x1="166.116" x2="177.19" y1="22.149" y2="33.223"/><line x1="166.116" x2="177.19" y1="33.223" y2="44.297"/><line x1="166.116" x2="177.19" y1="55.372" y2="44.297"/><line x1="166.116" x2="177.19" y1="55.372" y2="66.446"/><line x1="166.116" x2="177.19" y1="77.521" y2="66.446"/><line x1="166.116" x2="177.19" y1="88.595" y2="77.521"/><line x1="166.116" x2="177.19" y1="143.967" y2="155.041"/><line x1="166.116" x2="177.19" y1="166.116" y2="155.041"/><line x1="166.116" x2="177.19" y1="199.339" y2="188.264"/><line x1="166.116" x2="177.19" y1="210.413" y2="221.487"/><line x1="166.116" x2="177.19" y1="221.487" y2="232.562"/><line x1="166.116" x2="177.19" y1="232.562" y2="243.636"/><line x1="166.116" x2="177.19" y1="254.71" y2="243.636"/><line x1="166.116" x2="177.19" y1="265.785" y2="254.71"/><line x1="166.116" x2="177.19" y1="276.859" y2="287.934"/><line x1="166.116" x2="177.19" y1="287.934" y2="299.008"/><line x1="166.116" x2="177.19" y1="321.157" y2="310.082"/><line x1="166.116" x2="177.19" y1="332.231" y2="321.157"/><line x1="166.116" x2="177.19" y1="332.231" y2="343.305"/><line x1="166.116" x2="177.19" y1="354.38" y2="365.454"/><line x1="166.116" x2="177.19" y1="365.454" y2="376.529"/><line x1="166.116" x2="177.19" y1="387.603" y2="376.529"/><line x1="166.116" x2="177.19" y1="398.677" y2="387.603"/><line x1="166.116" x2="177.19" y1="398.677" y2="409.752"/><line x1="166.116" x2="177.19" y1="409.752" y2="420.826"/><line x1="166.116" x2="177.19" y1="431.9" y2="420.826"/><line x1="166.116" x2="177.19" y1="442.975" y2="431.9"/><line x1="166.116" x2="177.19" y1="454.049" y2="442.975"/><line x1="166.116" x2="177.19" y1="465.124" y2="454.049"/><line x1="177.19" x2="188.264" y1="0" y2="11.074"/><line x1="177.19" x2="188.264" y1="11.074" y2="22.149"/><line x1="177.19" x2="188.264" y1="33.223" y2="22.149"/><line x1="177.19" x2="188.264" y1="44.297" y2="33.223"/><line x1="177.19" x2="188.264" y1="55.372" y2="66.446"/><line x1="177.19" x2="188.264" y1="66.446" y2="77.521"/><line x1="177.19" x2="188.264" y1="77.521" y2="88.595"/><line x1="177.19" x2="188.264" y1="88.595" y2="99.669"/><line x1="177.19" x2="188.264" y1="99.669" y2="110.744"/><line x1="177.19" x2="188.264" y1="110.744" y2="121.818"/><line x1="177.19" x2="188.264" y1="121.818" y2="132.892"/><line x1="177.19" x2="188.264" y1="143.967" y2="132.892"/><line x1="177.19" x2="188.264" y1="177.19" y2="166.116"/><line x1="177.19" x2="188.264" y1="177.19" y2="188.264"/><line x1="177.19" x2="188.264" y1="188.264" y2="199.339"/><line x1="177.19" x2="188.264" y1="199.339" y2="210.413"/><line x1="177.19" x2="188.264" y1="221.487" y2="210.413"/><line x1="177.19" x2="188.264" y1="232.562" y2="221.487"/><line x1="177.19" x2="188.264" y1="243.636" y2="232.562"/><line x1="177.19" x2="188.264" y1="265.785" y2="254.71"/><line x1="177.19" x2="188.264" y1="287.934" y2="276.859"/><line x1="177.19" x2="188.264" y1="321.157" y2="310.082"/><line x1="177.19" x2="188.264" y1="321.157" y2="332.231"/><line x1="177.19" x2="188.264" y1="343.305" y2="332.231"/><line x1="177.19" x2="188.264" y1="354.38" y2="343.305"/><line x1="177.19" x2="188.264" y1="398.677" y2="409.752"/><line x1="177.19" x2="188.264" y1="409.752" y2="420.826"/><line x1="177.19" x2="188.264" y1="431.9" y2="442.975"/><line x1="177.19" x2="188.264" y1="465.124" y2="476.198"/><line x1="188.264" x2="199.339" y1="0" y2="11.074"/><line x1="188.264" x2="199.339" y1="22.149" y2="11.074"/><line x1="188.264" x2="199.339" y1="33.223" y2="22.149"/><line x1="188.264" x2="199.339" y1="55.372" y2="44.297"/><line x1="188.264" x2="199.339" y1="77.521" y2="88.595"/><line x1="188.264" x2="199.339" y1="99.669" y2="88.595"/><line x1="188.264" x2="199.339" y1="99.669" y2="110.744"/><line x1="188.264" x2="199.339" y1="121.818" y2="110.744"/><line x1="188.264" x2="199.339" y1="166.116" y2="155.041"/><line x1="188.264" x2="199.339" y1="188.264" y2="177.19"/><line x1="188.264" x2="199.339" y1="199.339" y2="188.264"/><line x1="188.264" x2="199.339" y1="199.339" y2="210.413"/><line x1="188.264" x2="199.339" y1="232.562" y2="221.487"/><line x1="188.264" x2="199.339" y1="232.562" y2="243.636"/><line x1="188.264" x2="199.339" y1="254.71" y2="243.636"/><line x1="188.264" x2="199.339" y1="254.71" y2="265.785"/><line x1="188.264" x2="199.339" y1="276.859" y2="287.934"/><line x1="188.264" x2="199.339" y1="321.157" y2="310.082"/><line x1="188.264" x2="199.339" y1="332.231" y2="321.157"/><line x1="188.264" x2="199.339" y1="365.454" y2="376.529"/><line x1="188.264" x2="199.339" y1="376.529" y2="387.603"/><line x1="188.264" x2="199.339" y1="398.677" y2="387.603"/><line x1="188.264" x2="199.339" y1="420.826" y2="409.752"/><line x1="188.264" x2="199.339" y1="431.9" y2="442.975"/><line x1="188.264" x2="199.339" y1="476.198" y2="465.124"/><line x1="199.339" x2="210.413" y1="11.074" y2="22.149"/><line x1="199.339" x2="210.413" y1="22.149" y2="33.223"/><line x1="199.339" x2="210.413" y1="33.223" y2="44.297"/><line x1="199.339" x2="210.413" y1="66.446" y2="55.372"/><line x1="199.339" x2="210.413" y1="88.595" y2="77.521"/><line x1="199.339" x2="210.413" y1="88.595" y2="99.669"/><line x1="199.339" x2="210.413" y1="121.818" y2="110.744"/><line x1="199.339" x2="210.413" y1="143.967" y2="132.892"/><line x1="199.339" x2="210.413" y1="143.967" y2="155.041"/><line x1="199.339" x2="210.413" y1="166.116" y2="155.041"/><line x1="199.339" x2="210.413" y1="199.339" y2="188.264"/><line x1="199.339" x2="210.413" y1="199.339" y2="210.413"/><line x1="199.339" x2="210.413" y1="243.636" y2="232.562"/><line x1="199.339" x2="210.413" y1="254.71" y2="265.785"/><line x1="199.339" x2="210.413" y1="276.859" y2="265.785"/><line x1="199.339" x2="210.413" y1="287.934" y2="276.859"/><line x1="199.339" x2="210.413" y1="299.008" y2="310.082"/><line x1="199.339" x2="210.413" y1="321.157" y2="310.082"/><line x1="199.339" x2="210.413" y1="321.157" y2="332.231"/><line x1="199.339" x2="210.413" y1="332.231" y2="343.305"/><line x1="199.339" x2="210.413" y1="343.305" y2="354.38"/><line x1="199.339" x2="210.413" y1="365.454" y2="376.529"/><line x1="199.339" x2="210.413" y1="376.529" y2="387.603"/><line x1="199.339" x2="210.413" y1="398.677" y2="387.603"/><line x1="199.339" x2="210.413" y1="398.677" y2="409.752"/><line x1="199.339" x2="210.413" y1="431.9" y2="420.826"/><line x1="199.339" x2="210.413" y1="431.9" y2="442.975"/><line x1="199.339" x2="210.413" y1="454.049" y2="442.975"/><line x1="199.339" x2="210.413" y1="476.198" y2="465.124"/><line x1="210.413" x2="221.487" y1="0" y2="11.074"/><line x1="210.413" x2="221.487" y1="11.074" y2="22.149"/><line x1="210.413" x2="221.487" y1="22.149" y2="33.223"/><line x1="210.413" x2="221.487" y1="66.446" y2="55.372"/><line x1="210.413" x2="221.487" y1="66.446" y2="77.521"/><line x1="210.413" x2="221.487" y1="88.595" y2="99.669"/><line x1="210.413" x2="221.487" y1="121.818" y2="110.744"/><line x1="210.413" x2="221.487" y1="121.818" y2="132.892"/><line x1="210.413" x2="221.487" y1="143.967" y2="132.892"/><line x1="210.413" x2="221.487" y1="188.264" y2="177.19"/><line x1="210.413" x2="221.487" y1="210.413" y2="199.339"/><line x1="210.413" x2="221.487" y1="210.413" y2="221.487"/><line x1="210.413" x2="221.487" y1="221.487" y2="232.562"/><line x1="210.413" x2="221.487" y1="232.562" y2="243.636"/><line x1="210.413" x2="221.487" y1="243.636" y2="254.71"/><line x1="210.413" x2="221.487" y1="265.785" y2="254.71"/><line x1="210.413" x2="221.487" y1="276.859" y2="287.934"/><line x1="210.413" x2="221.487" y1="299.008" y2="287.934"/><line x1="210.413" x2="221.487" y1="321.157" y2="310.082"/><line x1="210.413" x2="221.487" y1="321.157" y2="332.231"/><line x1="210.413" x2="221.487" y1="354.38" y2="343.305"/><line x1="210.413" x2="221.487" y1="376.529" y2="365.454"/><line x1="210.413" x2="221.487" y1="387.603" y2="376.529"/><line x1="210.413" x2="221.487" y1="398.677" y2="387.603"/><line x1="210.413" x2="221.487" y1="442.975" y2="431.9"/><line x1="210.413" x2="221.487" y1="454.049" y2="442.975"/><line x1="210.413" x2="221.487" y1="454.049" y2="465.124"/><line x1="210.413" x2="221.487" y1="476.198" y2="465.124"/><line x1="221.487" x2="232.562" y1="0" y2="11.074"/><line x1="221.487" x2="232.562" y1="22.149" y2="11.074"/><line x1="221.487" x2="232.562" y1="33.223" y2="44.297"/><line x1="221.487" x2="232.562" y1="66.446" y2="55.372"/><line x1="221.487" x2="232.562" y1="66.446" y2="77.521"/><line x1="221.487" x2="232.562" y1="110.744" y2="99.669"/><line x1="221.487" x2="232.562" y1="121.818" y2="110.744"/><line x1="221.487" x2="232.562" y1="132.892" y2="121.818"/><line x1="221.487" x2="232.562" y1="143.967" y2="132.892"/><line x1="221.487" x2="232.562" y1="155.041" y2="143.967"/><line x1="221.487" x2="232.562" y1="166.116" y2="155.041"/><line x1="221.487" x2="232.562" y1="166.116" y2="177.19"/><line x1="221.487" x2="232.562" y1="177.19" y2="188.264"/><line x1="221.487" x2="232.562" y1="188.264" y2="199.339"/><line x1="221.487" x2="232.562" y1="199.339" y2="210.413"/><line x1="221.487" x2="232.562" y1="221.487" y2="210.413"/><line x1="221.487" x2="232.562" y1="221.487" y2="232.562"/><line x1="221.487" x2="232.562" y1="254.71" y2="243.636"/><line x1="221.487" x2="232.562" y1="254.71" y2="265.785"/><line x1="221.487" x2="232.562" y1="265.785" y2="276.859"/><line x1="221.487" x2="232.562" y1="287.934" y2="276.859"/><line x1="221.487" x2="232.562" y1="299.008" y2="287.934"/><line x1="221.487" x2="232.562" y1="299.008" y2="310.082"/><line x1="221.487" x2="232.562" y1="321.157" y2="332.231"/><line x1="221.487" x2="232.562" y1="354.38" y2="365.454"/><line x1="221.487" x2="232.562" y1="376.529" y2="387.603"/><line x1="221.487" x2="232.562" y1="387.603" y2="398.677"/><line x1="221.487" x2="232.562" y1="420.826" y2="431.9"/><line x1="221.487" x2="232.562" y1="442.975" y2="431.9"/><line x1="221.487" x2="232.562" y1="454.049" y2="465.124"/><line x1="221.487" x2="232.562" y1="476.198" y2="465.124"/><line x1="232.562" x2="243.636" y1="0" y2="11.074"/><line x1="232.562" x2="243.636" y1="11.074" y2="22.149"/><line x1="232.562" x2="243.636" y1="33.223" y2="44.297"/><line x1="232.562" x2="243.636" y1="55.372" y2="44.297"/><line x1="232.562" x2="243.636" y1="77.521" y2="66.446"/><line x1="232.562" x2="243.636" y1="99.669" y2="88.595"/><line x1="232.562" x2="243.636" y1="99.669" y2="110.744"/><line x1="232.562" x2="243.636" y1="110.744" y2="121.818"/><line x1="232.562" x2="243.636" y1="121.818" y2="132.892"/><line x1="232.562" x2="243.636" y1="143.967" y2="132.892"/><line x1="232.562" x2="243.636" y1="155.041" y2="143.967"/><line x1="232.562" x2="243.636" y1="166.116" y2="177.19"/><line x1="232.562" x2="243.636" y1="177.19" y2="188.264"/><line x1="232.562" x2="243.636" y1="199.339" y2="188.264"/><line x1="232.562" x2="243.636" y1="210.413" y2="199.339"/><line x1="232.562" x2="243.636" y1="221.487" y2="232.562"/><line x1="232.562" x2="243.636" y1="232.562" y2="243.636"/><line x1="232.562" x2="243.636" y1="243.636" y2="254.71"/><line x1="232.562" x2="243.636" y1="265.785" y2="254.71"/><line x1="232.562" x2="243.636" y1="276.859" y2="265.785"/><line x1="232.562" x2="243.636" y1="287.934" y2="299.008"/><line x1="232.562" x2="243.636" y1="310.082" y2="321.157"/><line x1="232.562" x2="243.636" y1="332.231" y2="321.157"/><line x1="232.562" x2="243.636" y1="332.231" y2="343.305"/><line x1="232.562" x2="243.636" y1="354.38" y2="365.454"/><line x1="232.562" x2="243.636" y1="376.529" y2="365.454"/><line x1="232.562" x2="243.636" y1="376.529" y2="387.603"/><line x1="232.562" x2="243.636" y1="387.603" y2="398.677"/><line x1="232.562" x2="243.636" y1="398.677" y2="409.752"/><line x1="232.562" x2="243.636" y1="420.826" y2="431.9"/><line x1="232.562" x2="243.636" y1="442.975" y2="431.9"/><line x1="232.562" x2="243.636" y1="442.975" y2="454.049"/><line x1="232.562" x2="243.636" y1="465.124" y2="476.198"/><line x1="243.636" x2="254.71" y1="0" y2="11.074"/><line x1="243.636" x2="254.71" y1="22.149" y2="33.223"/><line x1="243.636" x2="254.71" y1="44.297" y2="33.223"/><line x1="243.636" x2="254.71" y1="44.297" y2="55.372"/><line x1="243.636" x2="254.71" y1="66.446" y2="55.372"/><line x1="243.636" x2="254.71" y1="88.595" y2="77.521"/><line x1="243.636" x2="254.71" y1="99.669" y2="110.744"/><line x1="243.636" x2="254.71" y1="121.818" y2="110.744"/><line x1="243.636" x2="254.71" y1="121.818" y2="132.892"/><line x1="243.636" x2="254.71" y1="143.967" y2="132.892"/><line x1="243.636" x2="254.71" y1="155.041" y2="143.967"/><line x1="243.636" x2="254.71" y1="155.041" y2="166.116"/><line x1="243.636" x2="254.71" y1="199.339" y2="210.413"/><line x1="243.636" x2="254.71" y1="221.487" y2="210.413"/><line x1="243.636" x2="254.71" y1="265.785" y2="254.71"/><line x1="243.636" x2="254.71" y1="265.785" y2="276.859"/><line x1="243.636" x2="254.71" y1="276.859" y2="287.934"/><line x1="243.636" x2="254.71" y1="332.231" y2="321.157"/><line x1="243.636" x2="254.71" y1="332.231" y2="343.305"/><line x1="243.636" x2="254.71" y1="343.305" y2="354.38"/><line x1="243.636" x2="254.71" y1="365.454" y2="376.529"/><line x1="243.636" x2="254.71" y1="387.603" y2="398.677"/><line x1="243.636" x2="254.71" y1="398.677" y2="409.752"/><line x1="243.636" x2="254.71" y1="420.826" y2="409.752"/><line x1="243.636" x2="254.71" y1="420.826" y2="431.9"/><line x1="243.636" x2="254.71" y1="442.975" y2="431.9"/><line x1="243.636" x2="254.71" y1="454.049" y2="442.975"/><line x1="243.636" x2="254.71" y1="454.049" y2="465.124"/><line x1="243.636" x2="254.71" y1="476.198" y2="465.124"/><line x1="254.71" x2="265.785" y1="22.149" y2="11.074"/><line x1="254.71" x2="265.785" y1="22.149" y2="33.223"/><line x1="254.71" x2="265.785" y1="55.372" y2="44.297"/><line x1="254.71" x2="265.785" y1="55.372" y2="66.446"/><line x1="254.71" x2="265.785" y1="66.446" y2="77.521"/><line x1="254.71" x2="265.785" y1="88.595" y2="77.521"/><line x1="254.71" x2="265.785" y1="155.041" y2="143.967"/><line x1="254.71" x2="265.785" y1="155.041" y2="166.116"/><line x1="254.71" x2="265.785" y1="177.19" y2="188.264"/><line x1="254.71" x2="265.785" y1="199.339" y2="188.264"/><line x1="254.71" x2="265.785" y1="199.339" y2="210.413"/><line x1="254.71" x2="265.785" y1="221.487" y2="232.562"/><line x1="254.71" x2="265.785" y1="243.636" y2="232.562"/><line x1="254.71" x2="265.785" y1="243.636" y2="254.71"/><line x1="254.71" x2="265.785" y1="265.785" y2="254.71"/><line x1="254.71" x2="265.785" y1="276.859" y2="265.785"/><line x1="254.71" x2="265.785" y1="276.859" y2="287.934"/><line x1="254.71" x2="265.785" y1="310.082" y2="299.008"/><line x1="254.71" x2="265.785" y1="365.454" y2="354.38"/><line x1="254.71" x2="265.785" y1="365.454" y2="376.529"/><line x1="254.71" x2="265.785" y1="420.826" y2="431.9"/><line x1="254.71" x2="265.785" y1="454.049" y2="465.124"/><line x1="265.785" x2="276.859" y1="11.074" y2="0"/><line x1="265.785" x2="276.859" y1="55.372" y2="44.297"/><line x1="265.785" x2="276.859" y1="66.446" y2="55.372"/><line x1="265.785" x2="276.859" y1="77.521" y2="66.446"/><line x1="265.785" x2="276.859" y1="77.521" y2="88.595"/><line x1="265.785" x2="276.859" y1="88.595" y2="99.669"/><line x1="265.785" x2="276.859" y1="110.744" y2="99.669"/><line x1="265.785" x2="276.859" y1="132.892" y2="121.818"/><line x1="265.785" x2="276.859" y1="132.892" y2="143.967"/><line x1="265.785" x2="276.859" y1="143.967" y2="155.041"/><line x1="265.785" x2="276.859" y1="188.264" y2="177.19"/><line x1="265.785" x2="276.859" y1="199.339" y2="210.413"/><line x1="265.785" x2="276.859" y1="221.487" y2="210.413"/><line x1="265.785" x2="276.859" y1="243.636" y2="232.562"/><line x1="265.785" x2="276.859" y1="254.71" y2="243.636"/><line x1="265.785" x2="276.859" y1="265.785" y2="254.71"/><line x1="265.785" x2="276.859" y1="276.859" y2="265.785"/><line x1="265.785" x2="276.859" y1="299.008" y2="287.934"/><line x1="265.785" x2="276.859" y1="310.082" y2="299.008"/><line x1="265.785" x2="276.859" y1="310.082" y2="321.157"/><line x1="265.785" x2="276.859" y1="332.231" y2="343.305"/><line x1="265.785" x2="276.859" y1="365.454" y2="354.38"/><line x1="265.785" x2="276.859" y1="376.529" y2="365.454"/><line x1="265.785" x2="276.859" y1="387.603" y2="398.677"/><line x1="265.785" x2="276.859" y1="431.9" y2="420.826"/><line x1="265.785" x2="276.859" y1="431.9" y2="442.975"/><line x1="265.785" x2="276.859" y1="476.198" y2="465.124"/><line x1="276.859" x2="287.934" y1="11.074" y2="0"/><line x1="276.859" x2="287.934" y1="22.149" y2="11.074"/><line x1="276.859" x2="287.934" y1="22.149" y2="33.223"/><line x1="276.859" x2="287.934" y1="55.372" y2="44.297"/><line x1="276.859" x2="287.934" y1="55.372" y2="66.446"/><line x1="276.859" x2="287.934" y1="88.595" y2="77.521"/><line x1="276.859" x2="287.934" y1="121.818" y2="110.744"/><line x1="276.859" x2="287.934" y1="121.818" y2="132.892"/><line x1="276.859" x2="287.934" y1="132.892" y2="143.967"/><line x1="276.859" x2="287.934" y1="143.967" y2="155.041"/><line x1="276.859" x2="287.934" y1="155.041" y2="166.116"/><line x1="276.859" x2="287.934" y1="177.19" y2="188.264"/><line x1="276.859" x2="287.934" y1="199.339" y2="188.264"/><line x1="276.859" x2="287.934" y1="221.487" y2="210.413"/><line x1="276.859" x2="287.934" y1="221.487" y2="232.562"/><line x1="276.859" x2="287.934" y1="265.785" y2="254.71"/><line x1="276.859" x2="287.934" y1="265.785" y2="276.859"/><line x1="276.859" x2="287.934" y1="276.859" y2="287.934"/><line x1="276.859" x2="287.934" y1="321.157" y2="310.082"/><line x1="276.859" x2="287.934" y1="343.305" y2="332.231"/><line x1="276.859" x2="287.934" y1="354.38" y2="365.454"/><line x1="276.859" x2="287.934" y1="376.529" y2="365.454"/><line x1="276.859" x2="287.934" y1="376.529" y2="387.603"/><line x1="276.859" x2="287.934" y1="387.603" y2="398.677"/><line x1="276.859" x2="287.934" y1="398.677" y2="409.752"/><line x1="276.859" x2="287.934" y1="420.826" y2="431.9"/><line x1="276.859" x2="287.934" y1="442.975" y2="431.9"/><line x1="276.859" x2="287.934" y1="454.049" y2="465.124"/><line x1="276.859" x2="287.934" y1="465.124" y2="476.198"/><line x1="287.934" x2="299.008" y1="0" y2="11.074"/><line x1="287.934" x2="299.008" y1="33.223" y2="22.149"/><line x1="287.934" x2="299.008" y1="66.446" y2="55.372"/><line x1="287.934" x2="299.008" y1="77.521" y2="66.446"/><line x1="287.934" x2="299.008" y1="77.521" y2="88.595"/><line x1="287.934" x2="299.008" y1="99.669" y2="88.595"/><line x1="287.934" x2="299.008" y1="110.744" y2="99.669"/><line x1="287.934" x2="299.008" y1="110.744" y2="121.818"/><line x1="287.934" x2="299.008" y1="121.818" y2="132.892"/><line x1="287.934" x2="299.008" y1="143.967" y2="155.041"/><line x1="287.934" x2="299.008" y1="177.19" y2="188.264"/><line x1="287.934" x2="299.008" y1="221.487" y2="210.413"/><line x1="287.934" x2="299.008" y1="221.487" y2="232.562"/><line x1="287.934" x2="299.008" y1="232.562" y2="243.636"/><line x1="287.934" x2="299.008" y1="254.71" y2="243.636"/><line x1="287.934" x2="299.008" y1="254.71" y2="265.785"/><line x1="287.934" x2="299.008" y1="276.859" y2="265.785"/><line x1="287.934" x2="299.008" y1="310.082" y2="299.008"/><line x1="287.934" x2="299.008" y1="321.157" y2="310.082"/><line x1="287.934" x2="299.008" y1="354.38" y2="365.454"/><line x1="287.934" x2="299.008" y1="398.677" y2="409.752"/><line x1="287.934" x2="299.008" y1="442.975" y2="454.049"/><line x1="287.934" x2="299.008" y1="465.124" y2="476.198"/><line x1="299.008" x2="310.082" y1="22.149" y2="33.223"/><line x1="299.008" x2="310.082" y1="33.223" y2="44.297"/><line x1="299.008" x2="310.082" y1="44.297" y2="55.372"/><line x1="299.008" x2="310.082" y1="66.446" y2="55.372"/><line x1="299.008" x2="310.082" y1="77.521" y2="66.446"/><line x1="299.008" x2="310.082" y1="110.744" y2="99.669"/><line x1="299.008" x2="310.082" y1="110.744" y2="121.818"/><line x1="299.008" x2="310.082" y1="132.892" y2="121.818"/><line x1="299.008" x2="310.082" y1="132.892" y2="143.967"/><line x1="299.008" x2="310.082" y1="143.967" y2="155.041"/><line x1="299.008" x2="310.082" y1="155.041" y2="166.116"/><line x1="299.008" x2="310.082" y1="166.116" y2="177.19"/><line x1="299.008" x2="310.082" y1="188.264" y2="177.19"/><line x1="299.008" x2="310.082" y1="188.264" y2="199.339"/><line x1="299.008" x2="310.082" y1="210.413" y2="199.339"/><line x1="299.008" x2="310.082" y1="221.487" y2="232.562"/><line x1="299.008" x2="310.082" y1="254.71" y2="243.636"/><line x1="299.008" x2="310.082" y1="276.859" y2="265.785"/><line x1="299.008" x2="310.082" y1="287.934" y2="276.859"/><line x1="299.008" x2="310.082" y1="299.008" y2="287.934"/><line x1="299.008" x2="310.082" y1="310.082" y2="321.157"/><line x1="299.008" x2="310.082" y1="332.231" y2="343.305"/><line x1="299.008" x2="310.082" y1="365.454" y2="354.38"/><line x1="299.008" x2="310.082" y1="365.454" y2="376.529"/><line x1="299.008" x2="310.082" y1="387.603" y2="376.529"/><line x1="299.008" x2="310.082" y1="398.677" y2="387.603"/><line x1="299.008" x2="310.082" y1="409.752" y2="398.677"/><line x1="299.008" x2="310.082" y1="431.9" y2="420.826"/><line x1="299.008" x2="310.082" y1="442.975" y2="431.9"/><line x1="299.008" x2="310.082" y1="454.049" y2="442.975"/><line x1="299.008" x2="310.082" y1="465.124" y2="454.049"/><line x1="299.008" x2="310.082" y1="476.198" y2="465.124"/><line x1="310.082" x2="321.157" y1="22.149" y2="11.074"/><line x1="310.082" x2="321.157" y1="33.223" y2="22.149"/><line x1="310.082" x2="321.157" y1="44.297" y2="33.223"/><line x1="310.082" x2="321.157" y1="44.297" y2="55.372"/><line x1="310.082" x2="321.157" y1="66.446" y2="55.372"/><line x1="310.082" x2="321.157" y1="77.521" y2="88.595"/><line x1="310.082" x2="321.157" y1="99.669" y2="110.744"/><line x1="310.082" x2="321.157" y1="110.744" y2="121.818"/><line x1="310.082" x2="321.157" y1="143.967" y2="132.892"/><line x1="310.082" x2="321.157" y1="155.041" y2="143.967"/><line x1="310.082" x2="321.157" y1="155.041" y2="166.116"/><line x1="310.082" x2="321.157" y1="166.116" y2="177.19"/><line x1="310.082" x2="321.157" y1="188.264" y2="177.19"/><line x1="310.082" x2="321.157" y1="188.264" y2="199.339"/><line x1="310.082" x2="321.157" y1="210.413" y2="199.339"/><line x1="310.082" x2="321.157" y1="210.413" y2="221.487"/><line x1="310.082" x2="321.157" y1="232.562" y2="221.487"/><line x1="310.082" x2="321.157" y1="232.562" y2="243.636"/><line x1="310.082" x2="321.157" y1="276.859" y2="265.785"/><line x1="310.082" x2="321.157" y1="299.008" y2="287.934"/><line x1="310.082" x2="321.157" y1="310.082" y2="299.008"/><line x1="310.082" x2="321.157" y1="321.157" y2="310.082"/><line x1="310.082" x2="321.157" y1="321.157" y2="332.231"/><line x1="310.082" x2="321.157" y1="343.305" y2="332.231"/><line x1="310.082" x2="321.157" y1="343.305" y2="354.38"/><line x1="310.082" x2="321.157" y1="354.38" y2="365.454"/><line x1="310.082" x2="321.157" y1="365.454" y2="376.529"/><line x1="310.082" x2="321.157" y1="398.677" y2="387.603"/><line x1="310.082" x2="321.157" y1="409.752" y2="398.677"/><line x1="310.082" x2="321.157" y1="431.9" y2="420.826"/><line x1="310.082" x2="321.157" y1="431.9" y2="442.975"/><line x1="310.082" x2="321.157" y1="442.975" y2="454.049"/><line x1="310.082" x2="321.157" y1="465.124" y2="476.198"/><line x1="321.157" x2="332.231" y1="0" y2="11.074"/><line x1="321.157" x2="332.231" y1="11.074" y2="22.149"/><line x1="321.157" x2="332.231" y1="22.149" y2="33.223"/><line x1="321.157" x2="332.231" y1="44.297" y2="33.223"/><line x1="321.157" x2="332.231" y1="55.372" y2="44.297"/><line x1="321.157" x2="332.231" y1="66.446" y2="55.372"/><line x1="321.157" x2="332.231" y1="77.521" y2="66.446"/><line x1="321.157" x2="332.231" y1="77.521" y2="88.595"/><line x1="321.157" x2="332.231" y1="99.669" y2="88.595"/><line x1="321.157" x2="332.231" y1="99.669" y2="110.744"/><line x1="321.157" x2="332.231" y1="121.818" y2="132.892"/><line x1="321.157" x2="332.231" y1="143.967" y2="132.892"/><line x1="321.157" x2="332.231" y1="155.041" y2="166.116"/><line x1="321.157" x2="332.231" y1="188.264" y2="177.19"/><line x1="321.157" x2="332.231" y1="210.413" y2="199.339"/><line x1="321.157" x2="332.231" y1="232.562" y2="243.636"/><line x1="321.157" x2="332.231" y1="243.636" y2="254.71"/><line x1="321.157" x2="332.231" y1="265.785" y2="254.71"/><line x1="321.157" x2="332.231" y1="276.859" y2="265.785"/><line x1="321.157" x2="332.231" y1="276.859" y2="287.934"/><line x1="321.157" x2="332.231" y1="287.934" y2="299.008"/><line x1="321.157" x2="332.231" y1="310.082" y2="321.157"/><line x1="321.157" x2="332.231" y1="321.157" y2="332.231"/><line x1="321.157" x2="332.231" y1="343.305" y2="332.231"/><line x1="321.157" x2="332.231" y1="343.305" y2="354.38"/><line x1="321.157" x2="332.231" y1="365.454" y2="354.38"/><line x1="321.157" x2="332.231" y1="387.603" y2="376.529"/><line x1="321.157" x2="332.231" y1="398.677" y2="409.752"/><line x1="321.157" x2="332.231" y1="420.826" y2="431.9"/><line x1="321.157" x2="332.231" y1="454.049" y2="442.975"/><line x1="321.157" x2="332.231" y1="465.124" y2="454.049"/><line x1="321.157" x2="332.231" y1="476.198" y2="465.124"/><line x1="332.231" x2="343.305" y1="11.074" y2="0"/><line x1="332.231" x2="343.305" y1="44.297" y2="33.223"/><line x1="332.231" x2="343.305" y1="44.297" y2="55.372"/><line x1="332.231" x2="343.305" y1="55.372" y2="66.446"/><line x1="332.231" x2="343.305" y1="77.521" y2="66.446"/><line x1="332.231" x2="343.305" y1="77.521" y2="88.595"/><line x1="332.231" x2="343.305" y1="99.669" y2="88.595"/><line x1="332.231" x2="343.305" y1="110.744" y2="121.818"/><line x1="332.231" x2="343.305" y1="132.892" y2="121.818"/><line x1="332.231" x2="343.305" y1="166.116" y2="155.041"/><line x1="332.231" x2="343.305" y1="177.19" y2="188.264"/><line x1="332.231" x2="343.305" y1="199.339" y2="210.413"/><line x1="332.231" x2="343.305" y1="254.71" y2="265.785"/><line x1="332.231" x2="343.305" y1="265.785" y2="276.859"/><line x1="332.231" x2="343.305" y1="276.859" y2="287.934"/><line x1="332.231" x2="343.305" y1="299.008" y2="287.934"/><line x1="332.231" x2="343.305" y1="299.008" y2="310.082"/><line x1="332.231" x2="343.305" y1="310.082" y2="321.157"/><line x1="332.231" x2="343.305" y1="343.305" y2="354.38"/><line x1="332.231" x2="343.305" y1="365.454" y2="354.38"/><line x1="332.231" x2="343.305" y1="365.454" y2="376.529"/><line x1="332.231" x2="343.305" y1="376.529" y2="387.603"/><line x1="332.231" x2="343.305" y1="398.677" y2="387.603"/><line x1="332.231" x2="343.305" y1="409.752" y2="398.677"/><line x1="332.231" x2="343.305" y1="442.975" y2="454.049"/><line x1="332.231" x2="343.305" y1="465.124" y2="454.049"/><line x1="332.231" x2="343.305" y1="465.124" y2="476.198"/><line x1="343.305" x2="354.38" y1="0" y2="11.074"/><line x1="343.305" x2="354.38" y1="11.074" y2="22.149"/><line x1="343.305" x2="354.38" y1="33.223" y2="22.149"/><line x1="343.305" x2="354.38" y1="33.223" y2="44.297"/><line x1="343.305" x2="354.38" y1="88.595" y2="77.521"/><line x1="343.305" x2="354.38" y1="99.669" y2="88.595"/><line x1="343.305" x2="354.38" y1="110.744" y2="99.669"/><line x1="343.305" x2="354.38" y1="132.892" y2="143.967"/><line x1="343.305" x2="354.38" y1="143.967" y2="155.041"/><line x1="343.305" x2="354.38" y1="155.041" y2="166.116"/><line x1="343.305" x2="354.38" y1="177.19" y2="166.116"/><line x1="343.305" x2="354.38" y1="177.19" y2="188.264"/><line x1="343.305" x2="354.38" y1="210.413" y2="199.339"/><line x1="343.305" x2="354.38" y1="210.413" y2="221.487"/><line x1="343.305" x2="354.38" y1="243.636" y2="232.562"/><line x1="343.305" x2="354.38" y1="254.71" y2="243.636"/><line x1="343.305" x2="354.38" y1="254.71" y2="265.785"/><line x1="343.305" x2="354.38" y1="287.934" y2="276.859"/><line x1="343.305" x2="354.38" y1="299.008" y2="287.934"/><line x1="343.305" x2="354.38" y1="310.082" y2="299.008"/><line x1="343.305" x2="354.38" y1="332.231" y2="343.305"/><line x1="343.305" x2="354.38" y1="343.305" y2="354.38"/><line x1="343.305" x2="354.38" y1="376.529" y2="365.454"/><line x1="343.305" x2="354.38" y1="376.529" y2="387.603"/><line x1="343.305" x2="354.38" y1="398.677" y2="387.603"/><line x1="343.305" x2="354.38" y1="431.9" y2="420.826"/><line x1="343.305" x2="354.38" y1="454.049" y2="442.975"/><line x1="354.38" x2="365.454" y1="44.297" y2="55.372"/><line x1="354.38" x2="365.454" y1="66.446" y2="55.372"/><line x1="354.38" x2="365.454" y1="66.446" y2="77.521"/><line x1="354.38" x2="365.454" y1="77.521" y2="88.595"/><line x1="354.38" x2="365.454" y1="110.744" y2="99.669"/><line x1="354.38" x2="365.454" y1="143.967" y2="155.041"/><line x1="354.38" x2="365.454" y1="155.041" y2="166.116"/><line x1="354.38" x2="365.454" y1="177.19" y2="166.116"/><line x1="354.38" x2="365.454" y1="188.264" y2="177.19"/><line x1="354.38" x2="365.454" y1="188.264" y2="199.339"/><line x1="354.38" x2="365.454" y1="210.413" y2="199.339"/><line x1="354.38" x2="365.454" y1="221.487" y2="232.562"/><line x1="354.38" x2="365.454" y1="232.562" y2="243.636"/><line x1="354.38" x2="365.454" y1="254.71" y2="243.636"/><line x1="354.38" x2="365.454" y1="265.785" y2="254.71"/><line x1="354.38" x2="365.454" y1="276.859" y2="265.785"/><line x1="354.38" x2="365.454" y1="287.934" y2="276.859"/><line x1="354.38" x2="365.454" y1="310.082" y2="299.008"/><line x1="354.38" x2="365.454" y1="321.157" y2="310.082"/><line x1="354.38" x2="365.454" y1="332.231" y2="321.157"/><line x1="354.38" x2="365.454" y1="365.454" y2="354.38"/><line x1="354.38" x2="365.454" y1="376.529" y2="365.454"/><line x1="354.38" x2="365.454" y1="387.603" y2="376.529"/><line x1="354.38" x2="365.454" y1="398.677" y2="409.752"/><line x1="354.38" x2="365.454" y1="420.826" y2="409.752"/><line x1="354.38" x2="365.454" y1="420.826" y2="431.9"/><line x1="354.38" x2="365.454" y1="454.049" y2="465.124"/><line x1="365.454" x2="376.529" y1="33.223" y2="22.149"/><line x1="365.454" x2="376.529" y1="33.223" y2="44.297"/><line x1="365.454" x2="376.529" y1="55.372" y2="66.446"/><line x1="365.454" x2="376.529" y1="88.595" y2="77.521"/><line x1="365.454" x2="376.529" y1="132.892" y2="121.818"/><line x1="365.454" x2="376.529" y1="143.967" y2="132.892"/><line x1="365.454" x2="376.529" y1="155.041" y2="166.116"/><line x1="365.454" x2="376.529" y1="166.116" y2="177.19"/><line x1="365.454" x2="376.529" y1="188.264" y2="199.339"/><line x1="365.454" x2="376.529" y1="199.339" y2="210.413"/><line x1="365.454" x2="376.529" y1="221.487" y2="232.562"/><line x1="365.454" x2="376.529" y1="265.785" y2="254.71"/><line x1="365.454" x2="376.529" y1="276.859" y2="287.934"/><line x1="365.454" x2="376.529" y1="299.008" y2="287.934"/><line x1="365.454" x2="376.529" y1="299.008" y2="310.082"/><line x1="365.454" x2="376.529" y1="332.231" y2="321.157"/><line x1="365.454" x2="376.529" y1="343.305" y2="332.231"/><line x1="365.454" x2="376.529" y1="343.305" y2="354.38"/><line x1="365.454" x2="376.529" y1="365.454" y2="354.38"/><line x1="365.454" x2="376.529" y1="376.529" y2="365.454"/><line x1="365.454" x2="376.529" y1="409.752" y2="398.677"/><line x1="365.454" x2="376.529" y1="420.826" y2="409.752"/><line x1="365.454" x2="376.529" y1="431.9" y2="420.826"/><line x1="365.454" x2="376.529" y1="465.124" y2="454.049"/><line x1="365.454" x2="376.529" y1="476.198" y2="465.124"/><line x1="376.529" x2="387.603" y1="11.074" y2="0"/><line x1="376.529" x2="387.603" y1="22.149" y2="11.074"/><line x1="376.529" x2="387.603" y1="44.297" y2="33.223"/><line x1="376.529" x2="387.603" y1="44.297" y2="55.372"/><line x1="376.529" x2="387.603" y1="55.372" y2="66.446"/><line x1="376.529" x2="387.603" y1="77.521" y2="66.446"/><line x1="376.529" x2="387.603" y1="88.595" y2="77.521"/><line x1="376.529" x2="387.603" y1="88.595" y2="99.669"/><line x1="376.529" x2="387.603" y1="121.818" y2="132.892"/><line x1="376.529" x2="387.603" y1="143.967" y2="155.041"/><line x1="376.529" x2="387.603" y1="166.116" y2="177.19"/><line x1="376.529" x2="387.603" y1="177.19" y2="188.264"/><line x1="376.529" x2="387.603" y1="188.264" y2="199.339"/><line x1="376.529" x2="387.603" y1="199.339" y2="210.413"/><line x1="376.529" x2="387.603" y1="232.562" y2="221.487"/><line x1="376.529" x2="387.603" y1="243.636" y2="254.71"/><line x1="376.529" x2="387.603" y1="254.71" y2="265.785"/><line x1="376.529" x2="387.603" y1="287.934" y2="299.008"/><line x1="376.529" x2="387.603" y1="310.082" y2="299.008"/><line x1="376.529" x2="387.603" y1="321.157" y2="310.082"/><line x1="376.529" x2="387.603" y1="321.157" y2="332.231"/><line x1="376.529" x2="387.603" y1="332.231" y2="343.305"/><line x1="376.529" x2="387.603" y1="354.38" y2="343.305"/><line x1="376.529" x2="387.603" y1="365.454" y2="376.529"/><line x1="376.529" x2="387.603" y1="387.603" y2="376.529"/><line x1="376.529" x2="387.603" y1="387.603" y2="398.677"/><line x1="376.529" x2="387.603" y1="409.752" y2="398.677"/><line x1="376.529" x2="387.603" y1="431.9" y2="442.975"/><line x1="376.529" x2="387.603" y1="442.975" y2="454.049"/><line x1="376.529" x2="387.603" y1="465.124" y2="476.198"/><line x1="387.603" x2="398.677" y1="0" y2="11.074"/><line x1="387.603" x2="398.677" y1="11.074" y2="22.149"/><line x1="387.603" x2="398.677" y1="22.149" y2="33.223"/><line x1="387.603" x2="398.677" y1="33.223" y2="44.297"/><line x1="387.603" x2="398.677" y1="55.372" y2="66.446"/><line x1="387.603" x2="398.677" y1="77.521" y2="66.446"/><line x1="387.603" x2="398.677" y1="77.521" y2="88.595"/><line x1="387.603" x2="398.677" y1="88.595" y2="99.669"/><line x1="387.603" x2="398.677" y1="99.669" y2="110.744"/><line x1="387.603" x2="398.677" y1="121.818" y2="110.744"/><line x1="387.603" x2="398.677" y1="132.892" y2="121.818"/><line x1="387.603" x2="398.677" y1="155.041" y2="143.967"/><line x1="387.603" x2="398.677" y1="166.116" y2="155.041"/><line x1="387.603" x2="398.677" y1="177.19" y2="188.264"/><line x1="387.603" x2="398.677" y1="199.339" y2="188.264"/><line x1="387.603" x2="398.677" y1="221.487" y2="232.562"/><line x1="387.603" x2="398.677" y1="243.636" y2="232.562"/><line x1="387.603" x2="398.677" y1="254.71" y2="243.636"/><line x1="387.603" x2="398.677" y1="254.71" y2="265.785"/><line x1="387.603" x2="398.677" y1="276.859" y2="265.785"/><line x1="387.603" x2="398.677" y1="287.934" y2="276.859"/><line x1="387.603" x2="398.677" y1="287.934" y2="299.008"/><line x1="387.603" x2="398.677" y1="299.008" y2="310.082"/><line x1="387.603" x2="398.677" y1="310.082" y2="321.157"/><line x1="387.603" x2="398.677" y1="321.157" y2="332.231"/><line x1="387.603" x2="398.677" y1="343.305" y2="332.231"/><line x1="387.603" x2="398.677" y1="343.305" y2="354.38"/><line x1="387.603" x2="398.677" y1="365.454" y2="354.38"/><line x1="387.603" x2="398.677" y1="398.677" y2="387.603"/><line x1="387.603" x2="398.677" y1="431.9" y2="420.826"/><line x1="387.603" x2="398.677" y1="431.9" y2="442.975"/><line x1="387.603" x2="398.677" y1="454.049" y2="442.975"/><line x1="387.603" x2="398.677" y1="465.124" y2="476.198"/><line x1="398.677" x2="409.752" y1="11.074" y2="0"/><line x1="398.677" x2="409.752" y1="22.149" y2="11.074"/><line x1="398.677" x2="409.752" y1="22.149" y2="33.223"/><line x1="398.677" x2="409.752" y1="33.223" y2="44.297"/><line x1="398.677" x2="409.752" y1="55.372" y2="44.297"/><line x1="398.677" x2="409.752" y1="77.521" y2="66.446"/><line x1="398.677" x2="409.752" y1="88.595" y2="77.521"/><line x1="398.677" x2="409.752" y1="99.669" y2="88.595"/><line x1="398.677" x2="409.752" y1="110.744" y2="99.669"/><line x1="398.677" x2="409.752" y1="110.744" y2="121.818"/><line x1="398.677" x2="409.752" y1="132.892" y2="121.818"/><line x1="398.677" x2="409.752" y1="143.967" y2="132.892"/><line x1="398.677" x2="409.752" y1="155.041" y2="143.967"/><line x1="398.677" x2="409.752" y1="166.116" y2="155.041"/><line x1="398.677" x2="409.752" y1="166.116" y2="177.19"/><line x1="398.677" x2="409.752" y1="188.264" y2="177.19"/><line x1="398.677" x2="409.752" y1="210.413" y2="199.339"/><line x1="398.677" x2="409.752" y1="210.413" y2="221.487"/><line x1="398.677" x2="409.752" y1="232.562" y2="243.636"/><line x1="398.677" x2="409.752" y1="254.71" y2="243.636"/><line x1="398.677" x2="409.752" y1="287.934" y2="276.859"/><line x1="398.677" x2="409.752" y1="299.008" y2="310.082"/><line x1="398.677" x2="409.752" y1="310.082" y2="321.157"/><line x1="398.677" x2="409.752" y1="321.157" y2="332.231"/><line x1="398.677" x2="409.752" y1="332.231" y2="343.305"/><line x1="398.677" x2="409.752" y1="354.38" y2="365.454"/><line x1="398.677" x2="409.752" y1="376.529" y2="387.603"/><line x1="398.677" x2="409.752" y1="398.677" y2="387.603"/><line x1="398.677" x2="409.752" y1="409.752" y2="398.677"/><line x1="398.677" x2="409.752" y1="420.826" y2="409.752"/><line x1="398.677" x2="409.752" y1="431.9" y2="420.826"/><line x1="398.677" x2="409.752" y1="442.975" y2="431.9"/><line x1="398.677" x2="409.752" y1="454.049" y2="465.124"/><line x1="398.677" x2="409.752" y1="465.124" y2="476.198"/><line x1="409.752" x2="420.826" y1="0" y2="11.074"/><line x1="409.752" x2="420.826" y1="11.074" y2="22.149"/><line x1="409.752" x2="420.826" y1="22.149" y2="33.223"/><line x1="409.752" x2="420.826" y1="33.223" y2="44.297"/><line x1="409.752" x2="420.826" y1="66.446" y2="55.372"/><line x1="409.752" x2="420.826" y1="77.521" y2="88.595"/><line x1="409.752" x2="420.826" y1="110.744" y2="99.669"/><line x1="409.752" x2="420.826" y1="132.892" y2="121.818"/><line x1="409.752" x2="420.826" y1="143.967" y2="155.041"/><line x1="409.752" x2="420.826" y1="166.116" y2="155.041"/><line x1="409.752" x2="420.826" y1="177.19" y2="166.116"/><line x1="409.752" x2="420.826" y1="177.19" y2="188.264"/><line x1="409.752" x2="420.826" y1="188.264" y2="199.339"/><line x1="409.752" x2="420.826" y1="221.487" y2="210.413"/><line x1="409.752" x2="420.826" y1="221.487" y2="232.562"/><line x1="409.752" x2="420.826" y1="243.636" y2="232.562"/><line x1="409.752" x2="420.826" y1="287.934" y2="276.859"/><line x1="409.752" x2="420.826" y1="299.008" y2="287.934"/><line x1="409.752" x2="420.826" y1="310.082" y2="299.008"/><line x1="409.752" x2="420.826" y1="310.082" y2="321.157"/><line x1="409.752" x2="420.826" y1="343.305" y2="332.231"/><line x1="409.752" x2="420.826" y1="354.38" y2="365.454"/><line x1="409.752" x2="420.826" y1="365.454" y2="376.529"/><line x1="409.752" x2="420.826" y1="387.603" y2="376.529"/><line x1="409.752" x2="420.826" y1="398.677" y2="387.603"/><line x1="409.752" x2="420.826" y1="398.677" y2="409.752"/><line x1="409.752" x2="420.826" y1="409.752" y2="420.826"/><line x1="409.752" x2="420.826" y1="420.826" y2="431.9"/><line x1="409.752" x2="420.826" y1="431.9" y2="442.975"/><line x1="409.752" x2="420.826" y1="442.975" y2="454.049"/><line x1="409.752" x2="420.826" y1="454.049" y2="465.124"/><line x1="420.826" x2="431.9" y1="11.074" y2="0"/><line x1="420.826" x2="431.9" y1="22.149" y2="33.223"/><line x1="420.826" x2="431.9" y1="33.223" y2="44.297"/><line x1="420.826" x2="431.9" y1="55.372" y2="66.446"/><line x1="420.826" x2="431.9" y1="88.595" y2="77.521"/><line x1="420.826" x2="431.9" y1="88.595" y2="99.669"/><line x1="420.826" x2="431.9" y1="110.744" y2="99.669"/><line x1="420.826" x2="431.9" y1="110.744" y2="121.818"/><line x1="420.826" x2="431.9" y1="121.818" y2="132.892"/><line x1="420.826" x2="431.9" y1="155.041" y2="143.967"/><line x1="420.826" x2="431.9" y1="166.116" y2="155.041"/><line x1="420.826" x2="431.9" y1="188.264" y2="177.19"/><line x1="420.826" x2="431.9" y1="210.413" y2="221.487"/><line x1="420.826" x2="431.9" y1="232.562" y2="221.487"/><line x1="420.826" x2="431.9" y1="243.636" y2="232.562"/><line x1="420.826" x2="431.9" y1="287.934" y2="299.008"/><line x1="420.826" x2="431.9" y1="299.008" y2="310.082"/><line x1="420.826" x2="431.9" y1="332.231" y2="321.157"/><line x1="420.826" x2="431.9" y1="343.305" y2="332.231"/><line x1="420.826" x2="431.9" y1="354.38" y2="343.305"/><line x1="420.826" x2="431.9" y1="365.454" y2="354.38"/><line x1="420.826" x2="431.9" y1="365.454" y2="376.529"/><line x1="420.826" x2="431.9" y1="376.529" y2="387.603"/><line x1="420.826" x2="431.9" y1="398.677" y2="387.603"/><line x1="420.826" x2="431.9" y1="409.752" y2="398.677"/><line x1="420.826" x2="431.9" y1="409.752" y2="420.826"/><line x1="420.826" x2="431.9" y1="420.826" y2="431.9"/><line x1="420.826" x2="431.9" y1="442.975" y2="454.049"/><line x1="420.826" x2="431.9" y1="465.124" y2="454.049"/><line x1="420.826" x2="431.9" y1="476.198" y2="465.124"/><line x1="431.9" x2="442.975" y1="11.074" y2="0"/><line x1="431.9" x2="442.975" y1="22.149" y2="11.074"/><line x1="431.9" x2="442.975" y1="33.223" y2="22.149"/><line x1="431.9" x2="442.975" y1="44.297" y2="33.223"/><line x1="431.9" x2="442.975" y1="44.297" y2="55.372"/><line x1="431.9" x2="442.975" y1="55.372" y2="66.446"/><line x1="431.9" x2="442.975" y1="77.521" y2="66.446"/><line x1="431.9" x2="442.975" y1="99.669" y2="88.595"/><line x1="431.9" x2="442.975" y1="121.818" y2="110.744"/><line x1="431.9" x2="442.975" y1="121.818" y2="132.892"/><line x1="431.9" x2="442.975" y1="143.967" y2="155.041"/><line x1="431.9" x2="442.975" y1="177.19" y2="188.264"/><line x1="431.9" x2="442.975" y1="199.339" y2="210.413"/><line x1="431.9" x2="442.975" y1="232.562" y2="221.487"/><line x1="431.9" x2="442.975" y1="232.562" y2="243.636"/><line x1="431.9" x2="442.975" y1="243.636" y2="254.71"/><line x1="431.9" x2="442.975" y1="254.71" y2="265.785"/><line x1="431.9" x2="442.975" y1="287.934" y2="299.008"/><line x1="431.9" x2="442.975" y1="299.008" y2="310.082"/><line x1="431.9" x2="442.975" y1="321.157" y2="310.082"/><line x1="431.9" x2="442.975" y1="332.231" y2="343.305"/><line x1="431.9" x2="442.975" y1="354.38" y2="343.305"/><line x1="431.9" x2="442.975" y1="365.454" y2="354.38"/><line x1="431.9" x2="442.975" y1="376.529" y2="365.454"/><line x1="431.9" x2="442.975" y1="398.677" y2="387.603"/><line x1="431.9" x2="442.975" y1="398.677" y2="409.752"/><line x1="431.9" x2="442.975" y1="409.752" y2="420.826"/><line x1="431.9" x2="442.975" y1="420.826" y2="431.9"/><line x1="431.9" x2="442.975" y1="431.9" y2="442.975"/><line x1="431.9" x2="442.975" y1="442.975" y2="454.049"/><line x1="442.975" x2="454.049" y1="22.149" y2="11.074"/><line x1="442.975" x2="454.049" y1="22.149" y2="33.223"/><line x1="442.975" x2="454.049" y1="33.223" y2="44.297"/><line x1="442.975" x2="454.049" y1="44.297" y2="55.372"/><line x1="442.975" x2="454.049" y1="66.446" y2="55.372"/><line x1="442.975" x2="454.049" y1="99.669" y2="110.744"/><line x1="442.975" x2="454.049" y1="110.744" y2="121.818"/><line x1="442.975" x2="454.049" y1="132.892" y2="121.818"/><line x1="442.975" x2="454.049" y1="143.967" y2="132.892"/><line x1="442.975" x2="454.049" y1="166.116" y2="155.041"/><line x1="442.975" x2="454.049" y1="166.116" y2="177.19"/><line x1="442.975" x2="454.049" y1="177.19" y2="188.264"/><line x1="442.975" x2="454.049" y1="199.339" y2="210.413"/><line x1="442.975" x2="454.049" y1="232.562" y2="221.487"/><line x1="442.975" x2="454.049" y1="232.562" y2="243.636"/><line x1="442.975" x2="454.049" y1="276.859" y2="287.934"/><line x1="442.975" x2="454.049" y1="299.008" y2="287.934"/><line x1="442.975" x2="454.049" y1="321.157" y2="310.082"/><line x1="442.975" x2="454.049" y1="321.157" y2="332.231"/><line x1="442.975" x2="454.049" y1="354.38" y2="343.305"/><line x1="442.975" x2="454.049" y1="365.454" y2="354.38"/><line x1="442.975" x2="454.049" y1="376.529" y2="387.603"/><line x1="442.975" x2="454.049" y1="387.603" y2="398.677"/><line x1="442.975" x2="454.049" y1="398.677" y2="409.752"/><line x1="442.975" x2="454.049" y1="442.975" y2="431.9"/><line x1="442.975" x2="454.049" y1="454.049" y2="442.975"/><line x1="442.975" x2="454.049" y1="465.124" y2="454.049"/><line x1="442.975" x2="454.049" y1="476.198" y2="465.124"/><line x1="454.049" x2="465.124" y1="11.074" y2="0"/><line x1="454.049" x2="465.124" y1="22.149" y2="11.074"/><line x1="454.049" x2="465.124" y1="55.372" y2="44.297"/><line x1="454.049" x2="465.124" y1="55.372" y2="66.446"/><line x1="454.049" x2="465.124" y1="99.669" y2="88.595"/><line x1="454.049" x2="465.124" y1="132.892" y2="121.818"/><line x1="454.049" x2="465.124" y1="132.892" y2="143.967"/><line x1="454.049" x2="465.124" y1="166.116" y2="155.041"/><line x1="454.049" x2="465.124" y1="188.264" y2="177.19"/><line x1="454.049" x2="465.124" y1="232.562" y2="221.487"/><line x1="454.049" x2="465.124" y1="232.562" y2="243.636"/><line x1="454.049" x2="465.124" y1="254.71" y2="243.636"/><line x1="454.049" x2="465.124" y1="276.859" y2="265.785"/><line x1="454.049" x2="465.124" y1="287.934" y2="299.008"/><line x1="454.049" x2="465.124" y1="321.157" y2="310.082"/><line x1="454.049" x2="465.124" y1="332.231" y2="321.157"/><line x1="454.049" x2="465.124" y1="332.231" y2="343.305"/><line x1="454.049" x2="465.124" y1="343.305" y2="354.38"/><line x1="454.049" x2="465.124" y1="354.38" y2="365.454"/><line x1="454.049" x2="465.124" y1="365.454" y2="376.529"/><line x1="454.049" x2="465.124" y1="398.677" y2="409.752"/><line x1="454.049" x2="465.124" y1="420.826" y2="409.752"/><line x1="454.049" x2="465.124" y1="431.9" y2="420.826"/><line x1="454.049" x2="465.124" y1="431.9" y2="442.975"/><line x1="454.049" x2="465.124" y1="476.198" y2="465.124"/><line x1="465.124" x2="476.198" y1="11.074" y2="0"/><line x1="465.124" x2="476.198" y1="11.074" y2="22.149"/><line x1="465.124" x2="476.198" y1="33.223" y2="22.149"/><line x1="465.124" x2="476.198" y1="33.223" y2="44.297"/><line x1="465.124" x2="476.198" y1="66.446" y2="77.521"/><line x1="465.124" x2="476.198" y1="110.744" y2="99.669"/><line x1="465.124" x2="476.198" y1="121.818" y2="110.744"/><line x1="465.124" x2="476.198" y1="188.264" y2="177.19"/><line x1="465.124" x2="476.198" y1="210.413" y2="199.339"/><line x1="465.124" x2="476.198" y1="210.413" y2="221.487"/><line x1="465.124" x2="476.198" y1="221.487" y2="232.562"/><line x1="465.124" x2="476.198" y1="243.636" y2="232.562"/><line x1="465.124" x2="476.198" y1="254.71" y2="265.785"/><line x1="465.124" x2="476.198" y1="265.785" y2="276.859"/><line x1="465.124" x2="476.198" y1="287.934" y2="276.859"/><line x1="465.124" x2="476.198" y1="287.934" y2="299.008"/><line x1="465.124" x2="476.198" y1="321.157" y2="310.082"/><line x1="465.124" x2="476.198" y1="332.231" y2="343.305"/><line x1="465.124" x2="476.198" y1="343.305" y2="354.38"/><line x1="465.124" x2="476.198" y1="354.38" y2="365.454"/><line x1="465.124" x2="476.198" y1="365.454" y2="376.529"/><line x1="465.124" x2="476.198" y1="387.603" y2="376.529"/><line x1="465.124" x2="476.198" y1="398.677" y2="387.603"/><line x1="465.124" x2="476.198" y1="431.9" y2="420.826"/><line x1="465.124" x2="476.198" y1="454.049" y2="465.124"/><line x1="465.124" x2="476.198" y1="465.124" y2="476.198"/></g></svg>