<svg xmlns="http://www.w3.org/2000/svg" width="468" height="468" viewBox="0 0 468 468"><defs><pattern id="circles" width="4" height="4" patternUnits="userSpaceOnUse"><circle cx="1" cy="1" r=".5" fill="#222"/></pattern></defs><g fill="none" stroke="#222" stroke-width="1"><rect width="69.463" height="56.988" x="301.85" y="244.711" fill="none"/><rect width="110.142" height="109.385" x="205.528" y="187.819" fill="none"/><rect width="123.022" height="133.949" x="85.05" y="199.668" fill="none"/><rect width="106.398" height="55.871" x="356.317" y="89.403" fill="none"/><rect width="118.54" height="58.745" x="303.672" y="234.56" fill="none"/><rect width="84.255" height="76.681" x="65.983" y="79.673" fill="none"/><rect width="128.821" height="121.187" x="241.63" y="250.309" fill="none"/><rect width="142.372" height="91.33" x="2.338" y="138.435" fill="none"/><rect width="67.373" height="133.825" x="130.549" y="31.799" fill="none"/><rect width="52.272" height="57.477" x="274.461" y="387.381" fill="none"/><rect width="100.858" height="98.904" x="16.92" y="217.173" fill="none"/><rect width="140.464" height="76.347" x="134.906" y="320.795" fill="none"/><rect width="69.84" height="97.221" x="129.95" y="275.02" fill="none"/><rect width="83.461" height="98.54" x="12.924" y="353.01" fill="none"/><rect width="89.631" height="141.988" x="142.924" y="8.421" fill="none"/><rect width="139.759" height="84.68" x="132.254" y="238.687" fill="none"/><rect width="92.01" height="121.708" x="294.888" y="273.504" fill="none"/><rect width="134.495" height="137.631" x="185.049" y="301.668" fill="none"/><rect width="136.062" height="62.471" x="107.445" y="238.484" fill="none"/><rect width="79.776" height="144.803" x="188.792" y="178.401" fill="none"/><rect width="97.904" height="80.265" x="86.453" y="131.287" fill="none"/><rect width="113.891" height="141.156" x="192.319" y="35.131" fill="none"/><rect width="55.071" height="140.739" x="202.972" y="75.72" fill="none"/><rect width="94.542" height="130.333" x="96.978" y="63.429" fill="none"/><rect width="50.221" height="62.171" x="287.311" y="215.499" fill="none"/><rect width="86.516" height="65.778" x="4.109" y="269.151" fill="none"/><rect width="129.113" height="120.991" x="89.748" y="332.858" fill="none"/><rect width="60.073" height="89.292" x="369.112" y="367.677" fill="none"/><rect width="62.76" height="138.756" x="210.709" y="264.793" fill="none"/><rect width="66.849" height="141.845" x="244.974" y="249.366" fill="none"/><rect width="141.584" height="106.95" x="233.882" y="235.676" fill="none"/><rect width="146.988" height="113.528" x="276.745" y="151.268" fill="none"/><rect width="147.911" height="69.102" x="170.254" y="273.34" fill="none"/><rect width="139.628" height="143.49" x="265.53" y="296.365" fill="none"/><rect width="55.947" height="79.169" x="232.244" y="95.78" fill="none"/><rect width="114.109" height="59.473" x=".685" y="229.682" fill="none"/><rect width="129.271" height="108.146" x="176.609" y="262.958" fill="none"/><rect width="93.184" height="120.6" x="182.342" y="177.059" fill="none"/><rect width="51.898" height="117.219" x="102.339" y="89.112" fill="none"/><rect width="71.054" height="130.717" x="156.393" y="235.48" fill="none"/><rect width="82.719" height="126.545" x="88.907" y="112.561" fill="none"/><rect width="133.961" height="133.434" x="325.983" y="44.507" fill="none"/><rect width="90.565" height="59.467" x="167.106" y="34.695" fill="none"/><rect width="116.84" height="104.368" x="109.923" y="215.709" fill="none"/><rect width="133.086" height="119.622" x="229.657" y="320.711" fill="none"/><rect width="140.827" height="128.071" x="30.044" y="180.346" fill="none"/><rect width="58.413" height="77.143" x="386.851" y="77.331" fill="none"/><rect width="122.774" height="136.206" x="119.759" y="52.465" fill="none"/><rect width="97.512" height="60.95" x="7.191" y="168.629" fill="none"/><rect width="88.542" height="133.13" x="288.471" y="106.458" fill="none"/><rect width="144.871" height="145.317" x="116.79" y="123.872" fill="none"/><rect width="85.732" height="132.566" x="303.06" y="173.484" fill="none"/><rect width="132.002" height="129.729" x="67.505" y="292.702" fill="none"/><rect width="145.392" height="140.074" x="227.503" y="225.811" fill="none"/><rect width="75.41" height="79.609" x="168.14" y="14.051" fill="none"/><rect width="145.172" height="58.84" x="278.357" y="84.603" fill="none"/><rect width="131.752" height="106.524" x="245.731" y="256.253" fill="none"/><rect width="110.093" height="124.936" x="73.074" y="121.179" fill="none"/><rect width="69.222" height="148.394" x="42.776" y="28.886" fill="none"/><rect width="140.402" height="123.259" x="234.445" y="187.363" fill="none"/><rect width="58.454" height="131.856" x="244.89" y="311.866" fill="none"/><rect width="116.602" height="89.091" x="346.332" y="285.17" fill="none"/><rect width="56.147" height="77.834" x="358.739" y="158.23" fill="none"/><rect width="87.3" height="96.946" x="239.305" y="233.926" fill="none"/><rect width="123.938" height="144.331" x="34.372" y="73.516" fill="none"/><rect width="141.089" height="74.467" x="77.778" y="142.001" fill="none"/><rect width="95.003" height="146.145" x="93.307" y="97.364" fill="none"/><rect width="112.651" height="107.389" x="294.464" y="297.227" fill="none"/><rect width="67.162" height="103.225" x="243.569" y="231.142" fill="none"/><rect width="127.79" height="137.262" x="318.664" y="10.893" fill="none"/><rect width="75.732" height="119.484" x="309.052" y="115.785" fill="none"/><rect width="64.632" height="62.923" x="214.636" y="142.837" fill="none"/><rect width="125.7" height="63.04" x="144.073" y="310.623" fill="none"/><rect width="89.309" height="117.959" x="310.037" y="284.141" fill="none"/><rect width="108.757" height="140.776" x="173.316" y="150.379" fill="none"/><rect width="83.351" height="148.515" x="147.077" y="102.474" fill="none"/><rect width="56.104" height="107.552" x="304.226" y="149.81" fill="none"/></g></svg>