<svg xmlns="http://www.w3.org/2000/svg" width="468" height="468" viewBox="0 0 468 468"><defs><pattern id="circles" width="4" height="4" patternUnits="userSpaceOnUse"><circle cx="1" cy="1" r=".5" fill="#222"/></pattern></defs><g fill="none" stroke="#222" stroke-width="1"><polyline fill="#222" stroke="#222" points="68.925 63.255 398.591 342.053 149.181 341.036 371.719 417.039 338.019 440.698 108.79 412.656 352.505 373.966 169.211 181.143 110.588 73.995 288.23 405.615 411.892 304.711 78.831 325.156 336.299 48.981 405.137 306.521 291.34 253.121 426.489 423.125 104.341 75.464 348.365 216.18 310.234 191.469 236.605 273.72 59.628 95.84 209.13 431.196 54.78 409.228 156.116 258.775 159.252 258.386 392.484 344.369 362.98 120.55 336.425 48.303 290.75 408.038 155.931 270.118 325.119 329.808 105.602 103.052 389.725 164.85 243.425 359.168 261.987 288.431 177.427 354.798 216.589 325.549 257.509 117.326 196.056 425.143 80.973 104.049 356.783 106.019 43.425 379.215 361.551 317.477 291.684 216.846 101.471 208.785 124.186 305.016 354.205 290.482 135.857 374.388 356.97 220.27 266.307 430.162 48.596 364.412 345.815 388.781 405.328 243.632 80.134 353.015 400.592 166.981 251.079 115.741 146.557 275.67 162.285 56.126 83.114 378.643 33.467 221.497 124.825 319.696 189.121 248.519 322.114 158.253 41.426 44.892 239.318 387.613 49.33 93.612 39.837 62.359 296.687 219.617 284.166 120.23 82.513 352.477 309.065 281.345 425.215 432.319 341.315 346.035 257.971 187.498 142.721 157.75"/></g></svg>