<svg xmlns="http://www.w3.org/2000/svg" width="468" height="468" viewBox="0 0 468 468"><defs><pattern id="circles" width="4" height="4" patternUnits="userSpaceOnUse"><circle cx="1" cy="1" r=".5" fill="#222"/></pattern></defs><g fill="none" stroke="#222" stroke-width="1"><polyline fill="none" stroke="#222" points=".299 2.518 26.884 1.942 56.713 9.504 79.207 22.979 91.767 12.888 116.429 21.48 130.424 6.719 146.894 18.645 182.339 13.325 194.845 1.662 205.905 .112 224.28 3.787 245.95 13.641 279.31 9.171 302.957 10.489 305.642 10.184 335.728 19.119 366.183 17.087 369.728 17.063 391.721 19.84 407.56 12.952 448.242 18.398 447.668 23.508 468.458 11.204"/><polyline fill="none" stroke="#222" points=".104 27.242 35.582 32.39 42.723 30.34 68.163 40.363 99.822 23.149 110.119 44.588 136.823 32.151 149.827 37.529 177.83 29.469 190.781 41.688 219.605 32.564 225.327 46.163 253.564 31.609 272.124 28.875 300.653 41.013 318.71 32.928 343.073 44.699 359.88 29.287 376.193 26.123 399.299 33.945 427.619 46.349 438.522 28.943 466.943 40.656 468.185 34.268"/><polyline fill="none" stroke="#222" points=".6 59.021 17.199 51.497 21.029 65.473 36.637 58.436 51.801 59.366 53.417 69.144 62.545 67.324 75.192 63.151 83.839 66.579 92.9 57.571 109.527 48.261 115.996 53.047 131.756 49.08 133.131 59.27 145.06 62.297 154.811 47.526 164.919 50.573 180.216 59.882 186.67 48.011 194.31 46.184 207.02 64.867 219.773 57.31 224.42 46.764 240.912 55.629 252.829 58.651 256.867 62.143 270.16 60.188 283.685 48.669 289.452 63.895 305.044 63.536 308.143 48.142 321.271 47.545 333.819 53.553 336.869 52.438 347.343 52.922 359.603 55.655 374.969 65.795 387.065 62.687 392.31 60.146 403.284 65.669 415.964 49.384 424.872 67.181 433.128 63.902 442.736 46.768 458.3 49.279 463.61 62.202 468.79 49.692"/><polyline fill="none" stroke="#222" points=".621 84.253 11.434 90.356 20.543 90.44 23.084 86.773 29.114 79.973 33.951 78.732 46.778 79.96 54.94 85.341 57.827 89.069 67.652 75.682 69.694 83.955 77.8 78.341 87.562 82.404 89.122 92.981 99.723 76.841 108.624 91.436 116.232 84.326 117.802 86.767 128.199 82.313 131.787 78.911 136.601 84.565 144.271 82.979 153.144 71.683 162.905 91.395 166.106 74.385 170.137 73.239 183.115 86.84 189.982 76.615 191.721 84.537 200.79 69.378 211.042 87.319 214.066 75.898 218.747 78.539 230.308 82.936 237.334 84.438 239.454 69.762 249.908 84.552 252.152 81.363 264.989 79.049 270.554 76.16 278.329 76.382 285.308 86.908 285.191 84.601 294.938 72.556 305.49 85.733 307.616 73.677 316.257 82.092 322.475 88.224 331.97 77.725 339.81 71.516 344.093 78.808 349.598 79.793 358.012 71.324 366.924 85.226 369.325 71.71 376.276 69.041 385.551 84.109 389.976 69.675 396.074 70.179 406.482 90.008 412.723 91.373 417.374 71.714 426.943 89.881 431.17 74.43 440.137 84.928 441.773 81.563 454.066 91.69 459.094 88.433 461.449 92.917"/><polyline fill="none" stroke="#222" points=".146 111.131 10.979 92.832 15.107 98.067 17.484 98.318 25.712 97.389 27.448 104.067 33.48 98.731 36.051 95.18 42.237 108.442 51.807 98.377 55.328 108.166 61.143 108.875 67.125 113.009 70.142 101.138 72.16 102.188 81.969 93.822 83.128 113.857 88.25 92.866 97.442 92.257 101.026 104.351 104.508 115.218 106.972 107.66 117.839 115.241 117.564 111.796 126.547 112.261 131.814 94.323 137.108 99.728 142.255 115.695 147.699 93.354 153.557 98.057 157.058 98.04 163.422 109.05 163.379 105.554 173.781 97.624 176.636 103.862 178.253 104.609 183.576 107.099 193.976 110.747 196.969 93.916 201.979 94.006 207.088 103.566 211.776 107.125 215.869 100.374 221.98 103.871 225.743 97.591 229.859 110.677 238.38 114.526 243.924 110.45 247.266 97.924 252.267 97.428 258.192 102.009 264.021 99.961 270.095 108.313 275.38 104.37 278.141 100.424 283.124 108.902 289.787 102.611 292.023 103.03 298.505 97.027 305.04 103.643 306.691 105.93 314.203 93.528 316.402 115.089 324.781 98.514 331.392 113.43 336.616 113.31 339.827 104.893 345.558 113.915 350.83 110.079 356.457 101.806 360.468 101.333 365.301 115.921 366.748 114.265 371.646 100.42 376.648 94.693 382.525 102.525 392.094 92.242 394.001 110.632 401.553 107.11 404.054 104.466 410.747 109.726 414.627 100.048 422.689 96.854 422.977 110.707 430.827 112.938 438.431 102.712 443.387 113.248 444.032 109.927 449.8 100.962 458.072 93.179 462.935 100.827 467.606 102.213 468.323 113.983"/><polyline fill="none" stroke="#222" points=".331 133.68 7.072 118.575 13.005 138.198 15.495 116.662 20.801 115.936 21.615 132.564 25.877 134.964 32.977 136.508 36.674 131.379 37.681 127.491 42.305 120.541 48.632 118.7 53.74 131.15 57.451 116.216 61.515 131.531 65.124 127.023 65.629 131.322 69.604 127.287 76.166 115.515 82.136 127.125 83.966 130.336 86.69 134.504 90.489 131.56 95.472 127.246 99.633 120.594 105.936 119.605 110.864 116.748 112.772 136.234 114.832 127.975 118.56 124.556 125.528 127.605 129.483 117.024 135.072 127.128 138.114 123.901 140.653 128.156 144.594 119.169 148.711 137.452 153.767 120.075 155.857 119.157 161.829 117.969 163.534 130.31 168.052 131.769 172.153 117.569 175.309 129.815 180.221 137.136 184.624 137.249 190.318 130.066 196.208 136.049 195.668 137.075 200.615 124.536 205.894 138.591 209.578 115.603 212.681 130.839 219.643 118.344 220.391 130.201 227.836 121.852 231.926 124.215 233.288 115.594 241.104 137.113 244.251 131.355 246.555 120.063 248.761 130.187 254.174 115.451 257.941 118.625 264.632 130.904 268.361 117.293 270.928 116.677 273.078 130.43 278.032 136.044 284.893 115.387 289.042 121.481 291.887 122.602 293.652 119.992 301.291 124.551 302.187 130.829 309.126 134.193 310.03 123.21 316.27 137.952 319.721 134.589 325.332 135.686 326.218 133.196 334.511 131.499 338.136 130.142 340.76 127.025 343.786 116.635 347.198 134.239 352.39 130.755 358.819 118.464 360.956 120.351 363.486 124.833 369.346 130.571 374.355 122.379 377.049 117.91 381.538 117.095 385.411 122.669 388.787 127.214 391.704 135.069 396.491 118.42 401.204 134.38 404.326 130.636 409.034 134.513 411.437 134.138 419.621 129.942 421.252 118.251 425.189 118.447 432.273 129.286 435.11 120.673 438.793 130.65 441.264 130.467 446.109 130.895 448.602 131.046 455.555 134.455 458.988 130.978 463.925 118.927 466.262 132.237 468.702 118.584"/><polyline fill="none" stroke="#222" points=".399 145.113 5.195 144.522 8.109 148.316 13.151 155.58 14.307 151.254 18.245 154.78 21.489 158.976 25.395 142.795 29.605 150.505 33.059 138.256 35.054 147.054 38.991 153.63 44.568 143.883 44.601 139.523 49.88 151.527 54.103 148.587 54.904 138.165 59.519 156.204 65.194 139.675 67.821 158.784 69.267 144.013 73.421 143.801 77.472 147.244 81.478 151.185 83.943 140.227 86.552 158.259 92.257 147.794 92.749 140.204 95.192 150.909 100.073 146.01 103.293 157.283 105.293 148.025 112.869 140.555 115.57 140.834 116.499 143.203 120.52 149.372 123.337 145.742 126.859 142.159 129.522 149.304 133.716 155.376 139.241 150.969 140.144 153.999 144.65 152.605 146.431 146.897 150.981 154.461 154.139 160.532 156.647 145.028 163.239 148.196 166.954 146.905 169.779 160.303 171.417 152.708 173.894 144.769 177.845 154.869 180.3 145.906 184.183 150.379 188.909 160.996 193.419 160.958 193.56 147.217 196.976 150.733 204.093 144.55 203.85 159.056 207.103 145.021 212.812 138.728 217.336 148.967 220.459 148.676 224.819 147.593 224.751 139.747 228.329 139.385 233.707 155.299 236.238 160.485 240.395 160.566 243.75 151.456 248.432 138.935 248.039 160.669 254.307 155.902 255.727 147.133 261.549 160.001 264.056 141.296 264.887 159.849 271.162 161.436 273.515 141.728 277.1 156.118 281.642 153.036 284.046 153.409 287.512 159.212 289.491 140.65 293.313 146.811 296.099 147.868 300.332 158.224 301.983 141.568 309.576 159.684 311.478 144.289 313.595 150.87 317.324 147.045 319.692 138.975 325.896 158.197 329.815 158.722 329.832 145.111 333.128 151.289 336.305 139.59 341.509 157.903 345.901 144.347 349.674 158.068 353.253 155.001 353.82 154.375 356.469 149.357 360.837 153.136 364.955 152.827 367.608 159.53 372.892 157.053 373.909 144.676 378.991 155.465 382.851 147.255 385.272 139.445 389.683 140.312 393.426 155.108 394.207 144.955 398.599 146.833 404.413 145.074 406.591 161.803 407.062 145.724 411.578 157.431 417.918 138.217 418.388 152.305 422.46 155.378 424.558 149.249 429.441 157.744 432.689 161.089 437.192 153.139 438.235 139.866 441.875 147.07 447.6 160.099 450.906 141.839 454.777 153.431 456.235 143.366 459.646 146.112 463.235 150.878 467.86 159.861 468.337 138.636"/><polyline fill="none" stroke="#222" points=".26 168.589 5.423 177.608 7.163 161.148 11.634 174.575 15.063 174.57 14.832 173.402 20.315 179.299 22.425 163.644 24.944 175.822 28.726 162.391 30.806 182.02 34.982 172.017 35.906 178.591 39.713 180.834 43.55 161.911 47.172 162.447 46.789 178.903 52.755 164.007 53.434 181.794 58.137 169.718 61.199 184.483 63.654 173.299 64.018 173.624 66.935 174.481 70.304 183.666 72.981 180.911 75.601 175.48 82.111 174.369 84.118 170.549 84.579 165.99 90.773 175.844 91.858 162.522 95.938 169.02 99.355 175.467 102.289 161.989 101.879 180.808 105.37 175.092 109.119 166.075 113.408 173.61 114.093 161.571 118.373 167.229 121.282 174.61 124.166 162.594 125.189 183.735 128.18 167.519 131.736 184.304 134.928 179.613 138.631 174.269 141.355 183.153 142.876 176.921 148.534 173.943 148.946 180.391 153.47 171.6 154.902 179.695 159.122 171.961 162.658 175.492 164.593 161.801 168.139 170.824 172.462 182.595 175.239 172.344 174.811 174.566 178.509 173.628 182.209 184.958 185.944 179.805 189.368 175.734 190.371 171.316 192.396 161.628 196.406 182.43 199.108 170.166 202.077 170.333 204.167 184.569 208.251 172.692 212.098 175.692 213.267 165.001 215.963 172.852 219.839 181.487 221.074 169.843 225.182 170.885 227.962 184.869 232.381 169.894 233.154 163.867 236.684 175.91 238.36 162.201 242.316 169.078 244.681 164.028 248.125 164.438 251.291 161.808 253.055 183.434 259.026 174.063 260.924 172.885 264.396 163.565 265.63 169.323 268.228 165.228 271.365 174.917 274.386 165.498 276.983 165.718 280.864 176.783 284.422 173.882 285.264 166.867 291.359 173.099 292.878 179.426 296.952 181.73 298.836 180.893 299.908 171.585 302.443 168.298 307.144 171.107 311.294 176.591 311.406 162.286 317.354 168.764 316.987 176.732 323.035 168.198 326.42 161.215 329.106 163.5 328.964 176.72 331.718 183.829 336.889 183.32 337.74 169.886 342.042 162.2 346.217 163.092 347.674 182.171 349.567 183.866 353.283 182.015 357.296 177.968 358.228 166.08 362.481 173.653 365.805 169.829 367.689 180.216 371.344 179.753 375.923 178.251 378.315 182.853 378.897 178.846 384.588 180.275 384.033 172.102 390.413 174.084 391.871 166.574 393.038 173.35 398.386 183.142 399.528 176.921 401.966 172.35 405.022 179.807 410.323 163.917 413.475 180.127 413.531 179.868 415.836 176.59 419.778 181.133 424.633 178.019 426.759 174.017 427.415 161.574 431.598 171.53 436.008 176.515 436.64 178.919 439.255 161.94 442.029 162.563 445.398 162.762 447.896 182.246 452.346 177.265 456.877 169.543 459.16 183.797 461.084 174.706 463.355 176.409 465.143 169.653 468.598 181.433"/><polyline fill="none" stroke="#222" points=".672 191.029 5.825 200.297 7.456 186.945 10.859 190.7 10.614 205.813 14.666 190.412 17.368 201.629 19.176 188.281 21.631 206.829 23.259 189.193 26.22 198.4 29.314 205.82 32.305 187.869 35.511 199.529 37.374 207.422 39.452 193.085 42.076 199.353 45.946 197.442 46.394 188.863 50.754 194.076 52.072 206.398 56.949 188.305 58.38 199.062 58.568 186.857 64.319 193.844 65.779 195.129 68.616 195.213 72.128 197.505 73.574 206.734 75.104 185.568 77.527 187.991 79.244 201.491 83.314 204.971 85.017 202.889 88.396 192.07 92.07 196.593 94.728 196.927 95.436 206.654 99.288 195.851 102.425 206.511 103.458 206.685 107.438 200.829 109.889 195.047 112.443 186.364 112.121 206.3 115.05 191.557 118.121 188.024 122.831 197.044 122.904 193.522 125.612 202.233 129.164 206.032 132.976 202.392 133.561 197.713 137.987 197.033 139.396 194.346 141.133 193.141 143.485 185.574 147.069 201.621 148.887 194.777 152.806 189.72 153.065 197.83 157.787 193.849 161.226 190.07 162.986 186.565 165.003 203.829 168.139 193.992 169.677 184.004 171.969 192.545 173.534 205.133 176.489 202.544 178.779 185.235 181.844 191.147 183.231 194.7 185.765 200.279 189.594 207.796 194.291 197.745 196.059 205.101 198.56 199.282 199.018 188.964 203.862 184.023 206.941 190.855 206.671 202.278 209.096 206.161 213.656 191.78 215.242 187.189 217.327 197.365 219.873 194.48 222.998 188.421 226.858 197.56 228.828 186.557 230.87 184.878 234.277 202.015 234.621 203.442 239.295 206.448 241.685 191.418 241.76 195.527 246.924 202.803 248.075 186.132 252.349 204.485 253.159 198.811 256.513 191.958 260.268 187.97 260.977 199.753 264.25 201.415 264.855 201.265 270.293 197.541 272.536 184.264 272.894 204.589 277.346 184.992 278.483 207.171 282.017 192.054 284.555 186.774 288.26 203.171 288.37 203.307 293.23 201.628 293.405 199.042 297.54 198.615 298.575 198.25 300.453 200.644 304.666 198.779 308.082 205.964 309.335 202.581 313.182 188.369 313.923 186.9 317.779 201.449 319.689 206.135 321.862 192.443 324.416 186.99 327.414 187.046 328.577 197.907 332.935 187.565 336.658 193.064 336.412 196.507 338.587 195.48 343.31 205.143 345.21 200.995 348.227 204.841 351.121 185.119 352.99 188.911 355.584 205.044 356.539 189.711 360.706 191.405 361.625 200.128 364.906 192.491 369.448 191.493 371.834 204.501 372.322 206.242 377.009 203.171 379.588 196.73 381.248 197.126 381.708 186.863 384.464 196.576 389.289 205.676 389.793 187.14 391.936 192.245 394.472 201.586 398.247 191.275 402.384 203.187 403.534 187.521 405.08 195.372 409.087 202.948 412.475 188.925 412.88 198.901 414.758 184.995 419.9 200.333 421.381 202.195 424.269 184.374 424.862 205.67 430.434 198.073 433.185 192.713 435.242 190.872 437.847 189.005 440.521 184.497 441.897 185.689 446.061 190.004 447.749 206.731 451.183 203.966 450.445 199.971 455.431 185.658 458.25 199.665 461.15 204.197 462.791 192.956 463.381 187.565 468.466 193.539 468.739 198.583"/><polyline fill="none" stroke="#222" points=".129 212.855 3.515 230.83 7.321 207.921 8.856 223.46 11.365 223.596 13.639 230.488 14.875 214.795 17.078 228.02 20.722 221.03 22.483 226.576 23.193 228.53 27.332 218.499 28.303 222.511 32.634 213.684 33.286 221.099 35.142 211.372 36.673 218.379 39.914 228.41 43.4 228.106 45.514 225.857 46.556 226.966 47.579 227.806 51.588 224.065 53.836 218.043 57.087 223.045 59.666 213.415 61.45 227.765 62.615 211.35 66.281 213.941 68.034 221.764 71.031 220.031 72.653 213.955 74.9 215.071 76.597 208.353 79.342 210.62 80.583 213.142 83.839 228.656 86.31 230.568 86.695 209.248 90.728 218.96 90.944 221.028 95.024 223.64 96.344 217.957 100.081 219.262 100.347 228.685 104.276 216.305 104.982 230.895 107.833 228.95 110.913 219.536 111.782 220.197 113.851 228.353 116.157 228.367 120.114 224.289 122.804 218.809 125.337 221.582 126.927 225.206 127.151 223.576 131.215 226.936 132.809 216.394 133.799 218.953 137.115 222.383 140.052 212.088 142.963 209.01 143.056 225.991 144.973 216.07 148.582 224.892 149.901 218.1 153.47 228.078 154.108 218.788 157.246 226.384 159.266 207.565 162.06 219.845 163.332 230.91 167.207 220.307 169.483 223.131 171.413 225.788 172.201 213.417 177.006 219.955 179.132 207.96 179.446 222.917 183.444 218.09 183.815 220.321 187.961 211.131 190.004 225.752 189.936 215.41 193.382 227.634 197.299 223.369 198.104 229.364 199.914 212.979 203.957 229.098 206.307 229.678 208.936 217.123 208.513 219.922 212.854 224.834 214.367 216.822 215.701 227.45 218.341 228.014 220.358 210.022 221.924 221.023 224.533 228.53 227.154 218.235 231.238 221.938 232.516 212.27 234.314 210.909 235.38 220.271 240.404 215.405 242.023 220.778 243.892 224.562 246.875 216.647 248.774 212.708 251.751 212.355 254.167 220.463 256.419 221.325 258.641 211.262 258.067 213.323 261.285 213.434 265.521 214.599 267.565 217.636 269.571 223.016 270.938 229.936 274.136 213.29 276.134 217.218 277.724 208.885 279.51 218.266 281.883 221.053 282.923 219.678 286.931 222.279 288.707 212.191 291.978 222.156 292.666 208.063 295.558 213.168 298.105 228.178 300.187 229.096 303.045 225.291 305.777 227.1 307.54 228.246 308.285 208.484 310.271 220.276 312.065 212.786 314.328 214.79 317.131 208.423 319.149 217.626 324.064 207.387 325.96 224.351 327.036 207.301 329.081 218.221 332.058 228.746 334.97 227.616 337.644 209.657 339.514 228.929 342.118 226.571 343.924 225.506 345.555 214.329 348.319 230.725 349.656 224.377 351.391 214.923 353.978 225.128 356.305 229.102 358.326 229.376 360.807 209.03 362.239 211.637 364.696 228.873 366.293 213.535 371.442 220.925 372.13 213.016 375.414 216.406 375.797 220.186 378.951 218.575 382.522 213.385 382.657 229.187 384.367 211.041 387.748 220.685 390.376 210.42 391.47 218.779 396.484 219.189 396.756 208.547 397.995 210.653 402.334 220.689 402.66 228.28 405.535 222.497 409.822 229.62 412.275 230.883 413.361 221.849 415.566 227.125 416.082 209.988 418.434 210.426 421.028 209.071 423.316 230.729 426.657 216.126 430.169 224.967 431.934 220.305 432.106 215.039 435.683 212.356 438.038 212.461 441.498 223.048 442.834 213.866 444.335 209.912 447.914 211.081 449.289 210.238 450.39 213.852 455.382 230.093 456.225 209.317 458.407 214.061 459.127 229.927 462.245 222.81 464.573 226.845 466.747 221.672 468.871 214.784"/><polyline fill="none" stroke="#222" points=".901 243.447 4.025 238.847 5.48 240.461 8.233 234.022 9.394 243.172 10.423 247.481 13.891 248.608 15.666 243.225 17.623 234.927 20.857 251.831 23.338 244.152 23.034 235.011 27.126 232.672 29.404 244.249 29.019 244.685 31.676 230.422 32.894 245.141 35.379 249.573 39.109 239.499 40.67 250.569 42.259 246.727 43.369 240.142 45.243 236.522 48.628 248.773 51.752 238.828 52.865 246.336 53.545 251.145 55.5 230.125 59.899 248.144 60.398 231.92 62.13 243.277 63.388 239.617 67.029 242.349 67.538 235.413 70.539 242.805 72.97 250.848 75.175 236.528 75.672 234.599 79.364 239.22 79.609 244.442 83.516 230.535 86.158 252.614 85.487 235.648 88.532 237.272 90.856 243.725 91.668 235.455 95.749 244.584 97.958 244.239 98.21 246.126 99.796 232.3 104.657 249.858 105.707 253.034 107.942 238.294 109.028 242.738 112.592 234.355 112.175 235.98 116.773 245.838 117.419 241.136 119.252 251.677 120.08 236.829 123.779 244.961 127.099 240.868 126.22 241.537 131.068 244.784 131.607 251.601 135.237 251.485 135.291 253.494 136.599 233.405 140.719 236.522 140.467 240.616 143.646 235.469 147.201 230.528 148.925 246.404 151.078 244.228 151.747 251.537 153.675 247.272 156.6 247.247 157.241 239.191 160.897 252.135 160.969 231.598 163.618 230.676 165.488 230.387 169.72 250.577 171.172 248.288 173.498 242.179 174.542 246.561 175.117 235.714 179.246 230.115 180.25 230.01 182.108 230.276 183.887 250.727 188.053 233.763 189.198 243.235 190.525 236.955 192.502 232.718 194.021 240.574 195.426 230.237 198.931 240.948 200.38 248.585 201.546 253.783 204.613 233.442 206.695 253.731 209.796 253.94 211.253 253.439 212.175 238.9 216.489 236.743 215.694 246.39 219.628 249.594 220.903 247.707 223.467 234.786 223.899 235.09 228.525 248.039 228.884 240.738 230.41 246.567 232.377 232.819 234.617 251.16 236.659 250.478 240.366 248.229 240.238 242.772 242.789 245.225 245.157 243.443 249.093 241.747 249.729 230.239 252.663 247.842 253.832 236.102 255.549 234.804 257.094 250.642 259.246 239.305 262.96 242.374 265.086 243.796 265.899 244.793 267.386 240.444 268.911 250.853 272.223 239.797 273.319 240.402 277.013 234.101 278.522 230.642 281.446 243.266 282.247 233.395 285.734 252.851 285.763 240.587 289.434 233.319 288.974 250.399 291.699 234.962 295.725 241.743 297.405 238.57 297.688 237.064 299.752 233.15 302.675 236.158 304.805 247.623 307.683 231.29 308.63 251.676 310.553 241.568 311.878 250.533 315.558 235.339 317.956 242.449 319.969 253.257 320.669 243.05 323.946 232.556 326.014 242.651 328.589 240.41 328.383 249.678 330.481 232.441 333.49 245.233 334.92 232.377 338.567 250.73 339.091 248.811 341.76 250.316 342.008 241.922 346.849 252.198 347.739 248.901 348.929 253.589 351.572 251.315 354.673 246.303 355.543 239.205 356.937 237.924 359.85 232.143 361.213 231.685 362.734 248.178 367.07 232.307 368.685 248.781 370.346 240.288 371.814 245.82 374.05 233.942 375.939 239.991 377.125 246.743 379.647 253.422 382.82 233.386 384.043 239.238 386.186 238.649 387.482 251.741 391.361 238.998 391.409 237.985 393.164 244.18 394.935 252.091 397.257 235.761 399.828 233.731 403.242 239.753 404.754 246.5 407.494 237.314 409.937 246.151 410.936 239.589 413.786 234.275 414.696 234.218 415.423 251.226 419.206 235.963 421.339 237.852 421.342 244.179 424.335 235.043 426.141 230.438 427.63 243.254 429.832 251.281 431.836 246.323 434.273 248.108 437.931 238.247 438.336 248.945 440.917 248.34 444.134 248.908 443.933 243.539 445.88 233.909 450.633 234.2 451.697 252.588 452.859 246.156 455.813 234.328 456.374 248.8 458.613 238.592 462.277 240.45 463.297 249.965 466.271 251.51 467.443 246.248 468.525 249.434"/><polyline fill="none" stroke="#222" points=".392 270.838 3.198 262.964 5.042 265.416 7.25 263.009 7.959 266.409 10.988 261.368 13.6 272.053 14.677 255.331 17.287 262.033 19.325 276.238 20.273 257.738 21.369 268.477 24.797 260.667 26.1 264.673 27.386 271.916 28.835 266.481 31.458 258.358 33.399 272.84 35.053 255.061 37.534 257.78 37.046 276.873 40.148 267.186 41.85 265.386 44.427 267.523 47.136 258.149 46.738 265.325 50.614 263.974 52.709 264.133 53.535 262.501 55.563 268.487 58.159 271.771 59.176 257.555 60.07 257.346 63.325 265.142 64.057 268.151 66.237 253.221 68.311 257.791 69.766 267.294 72.064 262.542 74.228 263.59 76.702 257.994 78.471 257.375 80.524 258.314 79.557 263.66 82.796 259.907 85.19 259.976 86.745 257.162 88.573 264.326 90.864 273.931 91.328 262.419 94.418 255.496 96.689 258.337 98.952 254.632 99.141 259.837 100.636 256.503 101.78 270.846 104.103 262.958 106.84 265.934 110.116 261.088 110.756 271.896 113.814 260.397 114.96 273.513 115.059 271.66 117.725 275.135 119.854 260.801 120.854 267.914 123.122 257.393 124.86 263.183 126.913 273.5 130.371 271.204 129.592 266.828 131.84 266.298 135.184 259.705 135.722 273.916 138.997 272.992 139.025 268.107 141.316 265.969 142.656 258.835 144.985 268.687 146.311 256.932 149.893 271.648 152.456 267.133 153.025 276.289 156.214 263.591 156.169 273.112 157.509 265.366 159.643 257.235 163.325 264.862 163.027 275.271 166.61 276.729 166.916 275.511 168.691 254.101 171.957 266.197 174.257 261.93 176.688 274.366 177.453 258.271 178.646 261.605 180.882 257.719 182.739 267.18 185.044 254.772 187.007 269.888 188.729 256.514 189.565 254.452 191.109 254.581 193.44 259.975 195.508 257.818 196.235 255.848 198.3 272.14 199.78 256.123 204.443 262.269 204.896 253.512 208.014 258.207 208.167 262.457 209.82 262.222 211.342 254.881 213.662 259.076 214.817 256.53 216.876 271.863 220.613 264.186 220.69 271.387 224.114 271.839 224.078 260.815 227.107 268.034 227.765 267.571 230.638 265.539 231.904 263.031 234.344 253.596 236.114 256.367 237.403 262.345 240.486 266.323 241.217 274.807 243.728 260.056 246.592 257.464 247.448 265.081 249.999 263.893 251.879 260.369 252.125 256.483 255.857 270.317 257.291 262.466 258.925 261.647 260.883 270.267 263.647 258.67 265.394 275.355 266.018 272.402 267.021 260.349 269.751 268.875 272.143 254.604 274.659 262.632 274.628 274.937 276.969 254.833 280.162 272.366 281.599 261.752 282.301 269.367 284.101 261.406 286.75 265.801 286.745 273.469 291.327 257.017 290.562 261.548 292.458 274.966 294.414 270.436 296.14 263.224 297.841 270.821 301.312 256.511 304.255 266.482 306.113 270.093 305.855 274.781 308.187 266.717 311.267 255.06 313.469 258.874 314.32 274.929 316.965 275.865 317.412 253.651 319.265 256.12 321.617 260.644 323.558 271.778 324.416 260.568 326.881 271.424 330.043 256.171 330.791 259.21 333.077 255.885 333.172 254.062 335.205 265.746 338.329 254.208 340.62 268.1 342.837 266.54 342.84 267.93 344.566 253.156 348.237 266.785 349.352 266.72 351.091 259.927 352.268 256.99 353.514 270.615 357.027 273.241 357.581 264.566 361.23 273.486 362.122 265.968 363.842 268.344 365.166 270.47 366.852 264.872 369.563 271.879 370.069 255.023 374.556 267.742 375.555 269.111 376.179 255.36 379.696 271.453 380.88 264.368 382.105 254.979 383.701 254.441 386.938 274.344 386.939 259.581 388.733 271.346 393.025 273.504 394.881 254.526 395.915 259.214 396.853 263.067 399.272 260.473 402.01 266.255 402.592 268.554 405.22 272.654 406.314 254.325 408.049 272.981 410.281 256.475 411.745 276.238 415.337 262.167 416.614 259.888 417.118 268.579 418.448 263.065 421.34 267.573 423.354 264.806 426.411 261.229 425.609 255.687 429.257 274.414 430.024 272.59 431.665 254.884 435.044 253.879 437.177 265.718 438.248 271.913 439.771 264.115 442.479 264.088 443.273 264.569 443.968 270.617 446.391 257.71 450.368 271.393 450.24 265.727 453.805 266.666 453.758 259.239 457.599 261.577 458.629 264.723 459.015 275.449 461.081 265.195 462.614 257.576 467.058 263.749 466.568 261.051 468.938 256.911"/><polyline fill="none" stroke="#222" points=".424 277.532 1.867 285.028 3.934 281.249 5.911 285.57 6.911 286.609 8.84 279.025 12.361 292.632 12.53 289.499 13.946 290.513 17.632 286.847 17.615 293.691 20.523 288.126 22.916 282.322 22.99 299.354 25.323 287.809 26.615 294.465 29.22 279.281 31.109 286.428 32.282 291.196 34.649 293.197 34.769 285.452 37.194 283.138 38.6 294.258 40.991 284.164 42.158 296.488 42.429 293.853 45.043 284.667 46.382 288.379 48.041 285.272 51.762 297.87 53.124 289.101 54.759 295.652 56.265 293.794 58.526 280.769 58.879 298.014 61.988 292.156 62.656 293.995 63.024 297.557 64.9 278.645 66.657 287.62 69.757 291.698 72.033 286.973 73.301 295.153 73.64 292.968 74.798 294.588 78.052 276.255 79.673 294.049 80.444 280.184 82.586 297.852 85.625 292.634 86.818 276.945 88.978 298.314 88.219 279.357 92.333 295.672 93.329 278.308 94.502 282.639 95.611 277.436 97.859 287.313 100.552 280.438 101.003 296.862 103.055 294.257 105.385 291.523 107.396 288.81 108.819 282.486 108.967 284.059 111.408 299.512 112.489 293.802 114.606 284.718 116.851 288.169 118.982 291.216 119.475 277.136 122.801 289.614 122.384 295.864 125.131 283.166 127.066 288.745 128.653 295.007 131.01 286.059 131.645 296.228 133.474 276.459 136.632 299.694 136.411 294.948 137.942 299.409 139.215 290.929 141.116 283.048 143.341 277.177 145.419 298.769 147.065 289.718 149.614 280.261 151.912 290.218 151.156 286.372 153.115 299.29 155.571 276.866 158.003 282.024 160.155 287.504 160.432 285.959 163.006 283.033 165.258 295.143 165.429 291.761 167.346 298.588 167.935 299.252 170.835 297.534 171.533 299.95 174.359 276.329 175.744 292.066 177.953 294.338 179.123 283.783 180.058 285.402 183.329 281.985 185.001 279.757 187.211 281.147 188.585 277.386 189.302 284.788 192.023 283.53 192.644 281.486 193.514 290.902 195.516 289.563 196.702 288.206 200.688 277.961 202.406 282.818 204.253 286.999 205.881 280.043 206.609 279.392 206.896 289.851 209.752 276.999 212.517 288.485 214.446 285.125 216.087 286.412 215.643 292.148 217.476 283.792 219.217 277.673 222.468 277.687 224.526 295.613 225.015 291.651 227.158 291.48 229.112 276.428 231.593 296.243 231.237 295.02 233.829 280.694 234.778 277.964 237.204 280.018 238.579 292.738 240.398 281.97 241.903 292.639 243.088 297.144 245.397 280.752 247.363 294.623 249.492 292.293 250.536 299.023 251.336 297.059 254.32 290.812 256.232 284.954 258.172 287.595 260.029 296.698 260.364 277.986 263.022 295.105 264.489 281.787 264.792 289.001 268.109 277.948 269.917 295.94 270.873 288.036 273.338 289.831 275.659 286.754 275.226 297.149 276.966 280.979 279.106 292.793 281.051 289.298 283.494 278.461 283.611 280.891 285.738 280.382 288.386 288.335 289.047 290.855 292.136 280.71 293.945 279.298 294.508 283.934 297.335 289.846 297.413 276.828 298.609 283.626 301.531 280.936 301.978 288.427 304.981 276.496 307.277 284.877 308.161 277.426 310.027 282.778 312.824 298.786 313.024 298.727 315.953 297.484 316.431 293.79 318.779 292.353 319.029 294.693 320.995 292.726 323.84 292.571 326.548 283.53 326.832 299.965 329.349 281.144 331.35 293.64 331.353 278.959 333.669 296.731 334.687 281.199 335.916 281.646 338.415 291.801 341.049 292.071 342.034 281.544 344.326 293.231 346.4 278.422 347.611 289.983 349.948 295.526 349.495 286.579 352.64 288.934 353.445 298.768 355.036 296.859 356.777 298.1 358.422 276.039 360.846 288.427 362.69 298.051 365.372 285.288 367.192 287.966 368.608 296.41 368.88 277.989 371.252 280.973 373.761 285.319 373.783 279.305 375.572 291.959 377.751 296.121 380.475 288.533 380.748 291.454 382.201 285.127 383.908 285.954 386.1 298.025 387.716 284.876 390.663 291.622 391.996 281.384 392.701 280.235 394.554 283.239 397.238 282.476 398.891 276.343 398.579 283.185 401.188 281.956 402.011 276.414 403.822 279.43 406.865 284.866 408.38 287.253 409.809 294.262 411.239 276.785 414.651 297.071 415.298 279.441 417.171 284.298 419.424 299.323 421.494 280.619 422.054 285.469 424.265 278.577 424.829 284.348 426.594 283.201 428.852 297.114 430.549 283.524 432.501 287.984 433.811 284.879 436.511 295.354 436.507 286.179 439.539 285.795 440.632 279.634 442.157 280.747 444.124 294.382 444.769 289.322 446.365 282.583 450.131 277.024 451.39 278.207 452.376 288.056 452.819 298.869 456.729 290.987 457.733 288.141 458.668 289.729 460.868 278.496 461.626 279.921 465.311 299.282 465.931 285.278 466.792 283.661"/><polyline fill="none" stroke="#222" points=".616 299.199 1.921 322.363 3.57 305.812 5.238 303.303 7.975 317.912 8.949 319.964 10.666 304.07 11.231 322.829 13.548 315.739 14.72 315.216 15.792 316.381 18.286 307.669 19.253 321.46 21.468 316.566 24.422 316.411 25.203 303.511 27.546 317.317 29.054 314.247 29.119 303.028 32.011 304.637 32.821 307.015 34.844 301.378 36.9 310.184 38.139 316.677 39.549 315.446 41.252 316.503 41.895 305.459 43.741 302.824 45.355 313.035 45.813 317.36 48.184 321.561 48.913 305.178 51.569 300.974 52.922 313.344 54.064 303.301 55.981 315.95 56.602 313.107 60.252 304.164 60.115 319.833 63.214 320.039 62.886 301.983 66.371 306.858 67.232 317.134 68.6 313.991 70.579 305.508 71.702 310.359 72.443 299.456 74.648 319.641 76.44 314.617 78.837 311.78 80.158 322.456 81.304 301.262 82.669 312.771 84.861 306.559 87.074 311.086 86.885 305.796 88.85 304.726 90.843 299.714 90.946 303.965 94.71 300.368 94.636 315.675 96.467 318.8 99.444 305.503 100.086 308.611 102.588 308.868 102.841 317.033 103.705 312.525 105.835 300.555 108.167 309.316 109.844 302.802 109.659 320.734 111.451 303.721 113.023 313.698 115.584 308.012 118.302 302.618 119.894 318.293 119.696 311.582 122.531 311.775 123.197 303.762 124.582 320.516 126.65 312.172 128.406 305.472 130.585 315.674 130.103 301.522 131.795 304.261 133.918 299.561 137.069 302.94 138.625 321.876 139.747 310.103 141.764 310.741 142.665 302.087 142.69 301.414 146.306 306.203 145.957 306.591 147.918 299.212 149.131 299.998 151.035 308.42 152.192 309.83 154.492 309.308 156.782 301.864 156.844 314.324 159.934 316.268 161.271 320.37 163.128 316.503 164.473 316.783 164.564 311.532 167.221 310.375 168.311 315.968 171.022 302.147 171.66 303.875 172.418 304.972 175.325 316.893 175.321 315.852 177.261 313.655 179.459 303.958 182.484 299.181 181.63 321.433 184.993 308.043 185.96 306.634 186.948 311.75 187.89 301.575 190.324 309.686 192.175 305.361 193.266 314.375 195.867 306.194 198.067 322.249 197.988 312.539 201.201 321.622 201.961 304.269 203.21 318.969 205.999 315.635 205.645 306.74 208.685 322.448 209.55 306.791 211.157 311.631 213.03 309.624 213.7 320.425 215.251 304.331 217.255 306.437 219.402 315.702 220.745 304.393 223.219 321.934 222.995 303.785 225.111 317.095 225.63 311.946 227.273 302.487 228.682 306.163 231.379 303.045 231.814 310.408 234.372 317.886 236.564 305.274 236.676 314.724 238.35 301.049 239.848 320.793 242.902 311.488 243.731 320.23 244.964 313.851 246.228 318.017 248.2 313.48 251.3 315.478 252.624 300.363 253.673 302.556 254.309 312.824 256.429 318.159 258.754 318.585 259.62 309.265 260.44 315.422 262.844 311.136 263.915 321.62 265.925 313.99 268.031 304.948 269.34 319.086 270.001 315.537 270.9 306.446 273.95 301.62 274.748 301.962 276.866 317.618 279.513 301.58 280.703 320.162 281.899 305.082 282.376 320.983 283.409 303.671 286.095 318.815 288.669 302.759 290.543 312.912 291.788 320.325 291.665 322.627 294.25 314.05 295.247 300.715 297.916 300.255 297.53 305.578 300.702 308.475 302.621 299.252 302.972 318.148 305 312.484 307.233 302.974 307.962 309.732 309.362 303.754 310.785 311.55 313.017 322.584 314.283 319.728 316.024 303.978 316.751 316.941 319.656 315.839 321.039 306.605 321.636 315.398 324.808 320.344 325.011 312.271 326.758 322.762 329.215 300.014 329.618 309.645 332.237 301.158 333.88 315.278 334.082 311.48 337.064 308.363 336.692 321.79 339.736 304.613 339.711 321.766 342.808 308.942 344.424 312.611 345.17 312.875 347.449 309.548 348.529 321.135 349.962 311.098 351.854 322.407 352.593 318.666 356.129 303.363 357.419 316.645 357.831 306.726 360.537 317.343 362.034 315.923 363.169 305.307 365.316 315.436 366.483 311.241 368.073 307.106 369.772 318.344 369.502 301.439 371.705 304.622 373.45 314.878 376.406 313.75 376.054 306.297 378.85 304.249 381.258 314.124 380.952 304.821 382.9 306.388 383.802 310.913 385.25 310.439 389.137 307.538 389.591 311.411 390.744 299.113 393.228 300.824 394.292 304.797 395.072 312.388 397.4 316.056 399.113 318.117 399.987 314.492 402.322 317.085 402.712 319.841 405.312 315.695 407.914 312.127 408.634 303.883 410.141 306.169 412.163 308.578 412.898 311.559 415.115 304.202 416.789 311.916 417.119 312.783 418.13 320.626 421.096 301.354 422.683 303.12 422.756 312.914 424.913 303.782 428.119 310.279 427.8 312.006 430.042 299.809 430.759 321.248 433.81 316.44 434.022 318.957 436.002 318.435 437.758 321.681 439.197 309.685 441.985 304.769 441.627 316.195 445.354 305.308 446.217 302.25 446.853 309.466 450.041 309.26 450.379 322.022 451.171 300.516 452.924 317.266 454.3 309.845 457.909 321.474 458.412 306.733 459.088 306.064 461.531 301.49 462.09 305.721 463.492 308.306 465.565 306.31 466.63 311.631"/><polyline fill="none" stroke="#222" points=".084 331.77 1.556 340.94 3.29 344.362 4.636 336.199 7.15 327.42 8.874 326.059 10.383 338.343 12.324 330.429 12.037 338.304 14.45 331.571 15.508 336.978 18.268 335.603 19.182 345.378 19.591 331.766 22.753 344.267 23.827 340.25 25.327 345.795 26.081 340.34 26.993 341.56 28.139 337.333 30.309 323.909 32.945 343.066 33.672 331.954 34.4 324.268 35.903 341.17 36.739 328.568 38.184 335.761 40.811 333.125 41.06 343.441 43.231 345.637 43.933 324.91 46.422 328.837 47.048 330.608 48.91 334.879 50.666 325.544 52.763 330.152 53.399 342.525 54.615 341.962 55.711 322.766 57.398 327.871 60.413 344.848 61.046 322.527 62.407 333.361 64.583 332.934 64.399 333.356 67.835 334.462 67.859 329.01 68.608 335.084 70.202 342.72 73.547 325.282 74.707 331.691 74.368 326.204 77.977 344.075 78.783 343.162 79.633 323.496 81.364 322.079 83.792 339.681 85.023 330.554 86.467 341.804 86.459 344.269 87.565 333.216 90.142 334.858 90.803 345.835 93.517 323.061 93.304 332.109 94.956 344.91 96.987 343.866 99.724 337.125 100.477 342.186 101.056 332.745 103.911 329.091 105.364 341.162 105.056 344.267 107.821 339.424 107.749 322.916 110.853 322.865 111.288 333.913 111.914 340.582 114.276 343.275 116.836 327.325 117.11 337.17 118.88 326.707 119.793 344.813 122.886 325.419 122.404 337.577 125.655 322.304 127.354 333.342 127.649 343.976 128.697 326.728 129.522 336.277 132.049 331.201 134.156 335.204 135.104 343.306 136.289 342.151 137.427 331.063 138.405 345.431 141.573 337.598 141.007 345.221 142.944 327.241 146.294 330.443 147.366 327.592 147.008 327.666 149.682 325.357 150.322 328.346 151.444 325.397 154.52 324.177 155.656 334.128 157.502 337.842 157.569 336.003 159.001 333.151 161.416 337.605 162.151 336.108 165.093 337.1 166.483 335.468 166.304 340.842 168.183 336.848 169.137 328.935 170.208 343.877 172.051 322.15 174.526 335.765 174.778 340.986 177.488 328.498 178.162 332.35 180.365 323.302 180.245 334.981 183.672 336.643 185.466 328.483 184.94 343.433 188.37 345.109 188.716 331.573 190.663 342.897 192.819 326.673 194.192 338.53 193.62 330.972 195.632 337.011 198.525 343.117 199.153 329.444 200.814 327.205 201.244 326.361 203.358 341.964 203.494 342.153 206.301 325.51 208.775 339.247 209.192 336.717 210.893 343.466 212.043 339.366 212.605 335.898 215.773 337.764 216.166 323.261 217.435 328.093 218.308 327.306 220.267 322.422 220.968 329.932 222.647 328.415 225.507 344.372 225.881 345.12 226.736 324.961 228.437 325.582 230.615 333.287 231.657 336.376 234.202 343.134 234.805 323.53 237.314 322.057 238.742 323.835 240.058 340.869 241.671 337.225 242.236 322.685 244.272 345.952 246.506 334.553 247.717 342.605 248.343 342.777 250.625 342.641 250.255 336.31 252.794 344.124 254.077 326.764 255.447 345.19 257.144 329.361 259.504 333.323 260.218 326.763 260.795 332.234 262.125 331.782 264.841 324.441 266.044 329.361 266.575 330.241 269.318 341.898 269.327 344.494 271.506 342.586 273.739 324.086 275.542 339.736 276.618 334.606 276.297 340.614 278.789 344.379 279.833 345.589 280.576 337.803 283.151 333.878 285.846 343.535 286.032 323.657 288.668 344.878 289.458 326.025 289.485 326.84 291.108 338.617 294.457 330.515 295.817 329.249 295.295 336.613 296.862 340.722 298.969 330.41 300.963 340.966 302.997 323.258 304.291 331.621 305.076 330.587 305.35 342.524 308.575 332.482 310.259 338.501 311.323 342.167 312.9 343.539 314.248 338.832 314.22 324.726 316.257 326.482 317.744 339.569 318.929 340.198 321.408 344.988 323.12 337.971 323.937 326.398 324.769 337.945 327.793 343.795 328.217 345.654 328.977 332.919 330.081 330.795 331.463 344.133 335.237 335.936 334.7 334.141 336.051 343.918 338.087 338.907 340.552 338.179 340.527 328.853 343.984 323.649 344.344 339.425 344.788 334.117 346.464 331.121 349.27 344.752 350.942 343.622 352.659 341.324 352.833 342.702 355.412 338.948 357.064 341.788 357.272 325.49 359.469 338.471 360.535 340.909 361.912 339.654 363.262 322.574 363.981 345.743 367.227 325.865 368.22 345.269 368.319 325.927 369.469 341.248 372.85 343.947 373.124 345.138 373.582 325.103 376.926 330.452 377.104 328.591 379.247 339.242 379.682 333.36 382.557 345.23 384.495 332.693 384.522 345.352 387.483 344.642 387.105 341.58 389.257 335.19 391.287 334.811 391.379 329.851 393.976 337.987 396.293 338.456 397.142 341.968 397.15 345.855 398.495 342.3 401.768 333.802 403.074 333.097 403.354 324.866 404.365 332.454 407.538 329.198 409.141 325.481 410.401 326.119 410.905 329.372 413.434 338.504 412.828 332.738 414.285 322.048 416.634 338.159 417.773 322.953 420.267 332.444 420.347 327.001 422.315 341.823 424 328.666 424.888 340.266 426.417 341.688 427.988 344.946 430.016 327.803 430.294 345.632 432.303 326.967 434.978 332.516 436.631 340.381 437.822 344.462 439.46 327.958 439.233 322.974 442.101 338.991 442.658 344.823 445.581 331.798 444.879 325.527 447.455 327.68 447.966 330.837 450.784 331.388 451.061 341.566 454.254 332.719 454.422 334.861 455.764 344.351 457.876 341.502 460.198 328.949 459.604 334.294 462.744 328.464 464.639 342.324 464.568 325.4 467.3 335.427 466.936 338.31"/><polyline fill="none" stroke="#222" points=".159 368.787 2.86 359.142 4.036 349.196 5.083 350.452 6.662 356.302 7.87 358.106 8.251 357.742 10.829 348.973 13.087 356.294 13.206 366.051 15.659 358.341 17.109 350.947 16.526 361.436 18.249 352.456 20.508 351.981 22.489 357.457 22.532 353.704 23.611 361.416 24.652 362.792 27.219 366.626 28.492 358.984 28.542 364.849 31.798 364.803 31.436 346.457 32.991 358.749 34.882 352.163 35.592 345.295 37.134 350.756 38.541 352.645 39.514 353.73 42.567 362.551 42.693 354.155 44.194 354.69 46.785 365.704 47.367 361.435 48.392 363.402 49.568 357.522 51.241 351.753 52.98 355.111 53.319 348.307 56.519 354.818 56.935 351.911 58.648 359.069 59.868 350.53 59.698 363.045 61.253 365.332 62.773 357.705 64.608 347.791 66.767 356.723 68.222 355.124 67.887 350.793 71.389 363.113 71.095 362.685 72.55 367.208 75.41 345.954 75.794 352.389 77.754 364.922 79.61 356.184 79.38 351.781 81.229 363.011 81.441 354.414 83.114 357.995 84.836 362.41 86.379 356.742 88.105 361.376 88.699 352.481 91.831 357.271 93.051 351.885 93.531 352.177 95.641 360.052 96.842 353.171 96.601 352.272 98.963 352.448 100.963 352.979 100.582 359.78 103.74 348.847 104.488 355.161 105.654 355.13 106.883 364.859 107.474 359.948 108.8 365.113 109.99 350.05 113.498 365.007 114.651 364.08 115.037 345.966 115.385 360.09 118.214 362.705 118.75 358.425 120.654 365.272 120.737 360.342 122.965 350.322 124.348 350.151 125.947 351.402 128.183 352.49 128.462 346.964 129.083 360.905 130.312 351.793 133.445 361.792 133.036 346.75 135.23 352.223 137.585 363.827 139.074 356.34 139.668 363.164 140.413 354.01 141.532 353.426 144.23 348.329 144.541 352.19 145.33 350.935 148.078 367.026 149.819 345.459 149.735 352.348 152.713 367.75 152.182 347.387 153.977 349.523 156.223 358.281 157.567 351.576 159.267 347.485 159.802 365.509 161.247 352.725 161.77 355.89 164.793 357.926 164.453 367.717 167.111 353.12 167.922 347.103 169.366 355.402 171.007 357.353 171.557 348.851 172.777 356.751 174.854 364.13 176.959 346.075 177.915 350.165 177.939 366.058 180.628 345.623 182.444 346.421 183.449 348.392 185.44 364.045 185.164 346.877 187.595 348.531 187.287 359.816 188.746 362.211 191.201 367.528 191.531 362.861 192.765 359.416 195.377 367.824 196.407 345.158 198.067 360.189 199.61 350.672 201.115 351.841 201.917 354.995 203.372 345.762 204.331 364.746 205.987 348.902 206.541 368.984 208.658 355.961 209.284 349.142 212 359.813 213.33 359.093 215.296 365.678 216.177 362.179 217.099 348.841 218.114 366.389 218.448 361.994 222.048 347.541 222.51 366.828 224.425 345.056 225.937 356.45 225.923 366.305 227.319 356.396 229.714 355.231 229.323 358.691 231.805 366.028 233.44 364.513 235.044 368.731 235.07 368.047 236.525 345.072 239.746 363.729 240.677 367.245 240.921 366.65 243.626 362.759 244.279 352.037 244.683 349.37 246.577 356.089 246.93 355.346 249.077 353.352 250.249 353.799 251.103 361.801 252.874 350.333 254.609 352.066 257.249 357.375 257.624 368.256 258.761 356.972 260.117 355.697 262.614 368.658 262.886 348.993 264.657 358.864 265.935 358.68 266.651 348.787 267.952 345.278 269.954 365.519 271.736 350.72 272.539 357.393 273.612 348.436 276.016 360.547 277.336 364.477 277.639 355.964 278.812 350.19 279.745 353.424 281.05 355.295 283.534 367.17 285.72 359.357 285.235 360.521 287.72 367.561 288.982 347.391 289.513 359.654 290.68 359.855 292.72 367.848 294.736 347.14 294.979 367.059 296.384 355.694 297.769 362.115 300.093 367.275 302.066 364.292 303.204 346.278 302.718 356.824 304.927 356.44 305.801 368.803 308.641 354.742 309.783 362.446 309.318 359.071 311.221 352.037 313.157 361.785 314.101 355.484 314.862 358.927 317.121 350.384 318.358 354.978 320.584 359.419 321.533 347.548 323.35 367.414 324.313 365.579 326.481 349.257 327.089 345.547 327.295 357.851 329.683 348.763 329.834 358.748 333.222 364.543 333.644 359.65 334.014 364.06 335.205 360.472 338.76 353.866 338.36 350.948 340.468 359.448 341.238 359.212 342.959 352.654 344.981 359.387 345.761 356.126 346.445 367.906 348.776 363.889 350.335 354.651 350.493 355.501 352.73 351.577 352.995 360.96 355.004 360.249 357.445 365.533 358.76 354.401 359.834 358.872 361.734 351.751 363.091 351.752 364.459 360.696 365.867 358.423 366.893 364.504 368.184 364.534 368.104 366.145 369.285 351.24 371.528 365.791 372.236 367.429 374.012 363.244 375.924 360.639 376.34 347.783 378.549 355.788 380.132 355.076 379.893 352.049 382.686 359.177 383.71 354.824 385.845 365.593 386.891 354.009 388.534 352.784 388.298 354.403 390.811 368.718 392.414 348.117 393.861 361.894 395.376 358.765 396.916 364.227 396.406 356.705 399.076 362.278 400.345 348.329 402.268 347.956 403.416 352.708 403.381 346.926 405.55 367.822 406.926 362.279 408.993 353.305 409.152 359.699 411.683 352.497 412.895 366.089 413.889 364.516 414.68 353.669 416.052 348.396 418.241 354.38 418.201 365.498 420.207 354.368 422.838 358.048 424.106 360.219 425.474 355.648 424.744 354.797 428.242 361.757 427.439 357.692 430.394 359.683 430.491 350.932 432.893 363.415 432.976 357.502 434.667 366.136 436.207 350.766 438.588 358.338 439.661 363.673 440.432 350.834 441.878 353.732 442.844 355.988 445.406 361.911 446.677 354.425 448.244 364.106 448.534 368.346 450.179 345.071 451.73 345.742 453.223 363.565 453.548 345.568 455.501 357.944 456.629 359.618 458.797 363.763 459.252 349.664 460.282 356.828 461.776 357.098 464.106 368.615 464.886 356.347 467.551 352.911 468.811 355.041 468.796 354.811"/><polyline fill="none" stroke="#222" points=".105 384.817 2.868 382.777 3.355 380.12 4.502 375.231 6.866 368.743 7.834 380.593 9.374 391.901 10.215 378.048 10.688 371.548 12.395 384.045 14.371 380.602 14.829 379.213 17.368 375.227 17.787 390.12 18.732 379.701 20.001 379.807 20.697 373.482 23.424 375.8 23.213 386.308 24.789 379.299 27.461 369.933 28.706 373.534 30.236 370.124 31.333 376.395 32.777 383.185 32.711 370.396 34.574 379.644 35.023 368.24 37.753 391.744 38.017 374.542 39.977 374.393 40.84 381.925 41.899 387.484 42.565 387.234 45.012 382.037 46.716 371.417 47.56 370.74 48.267 373.304 49.805 391.288 51.704 378.585 51.01 375.375 54.229 388.953 53.958 373.786 55.653 391.789 56.627 383.26 57.647 373.47 60.219 379.933 61.006 377.146 62.813 371.38 63.138 368.7 65.61 368.496 65.698 385.818 67.395 376.345 68.01 375.492 70.234 388.679 70.967 370.428 71.343 391.49 72.861 385.955 74.475 384.005 77.063 371.032 78.09 368.555 78.342 379.585 79.618 370.254 81.211 390.797 81.567 381.544 83.18 370.387 85.617 383.333 86.947 385.921 87.193 386.425 88.787 391.827 90.822 391.622 91.169 371.681 93.42 381.704 92.903 385.048 96.047 381.488 96.345 372.173 97.892 372.39 98.992 378.701 101.065 387.624 100.55 369.211 103.767 388.777 105.123 375.915 106.3 385.308 107.074 381.127 107.258 390.322 109.108 374.503 110.185 375.481 111.718 373.838 113.802 379.623 113.408 381.21 116.29 385.79 116.489 377.727 118.059 381.827 119.09 374.334 121.398 374.815 121.82 390.522 123.156 379.399 125.376 382.922 125.268 389.998 128.081 376.555 129.036 391.243 130.699 382.465 131.115 373.316 132.072 372.667 134.445 384.685 135.338 377.664 136.722 380.596 137.42 375.951 138.069 384.881 139.779 390.59 140.175 369.493 142.58 380.661 143.545 374.096 144.686 369.451 145.968 383.251 147.644 374.395 148.126 387.696 149.94 389.816 152.033 386.448 152.683 373.796 153.892 375.513 154.758 377.883 157.137 375.808 158.12 383.913 159.709 386.863 158.982 372.904 161.228 385.125 162.29 378.897 164.311 384.55 165.915 384.143 166.451 382.5 166.816 387.173 168.924 389.47 169.245 368.287 172.102 369.532 172.806 381.341 174.997 383.291 175.609 368.829 177.565 388.83 178.756 368.839 179.876 375.984 180.409 389.061 181.66 384.474 182.843 368.192 184.395 378.705 184.726 374.395 186.139 381.149 188.726 391.144 190.375 373.002 190.576 388.382 191.424 381.007 193.95 385.359 194.784 386.889 195.397 370.459 196.083 369.426 199.005 374.679 199.301 381.901 200.848 385.865 202.421 381.738 204.363 384.417 205.582 379.113 205.585 387.992 206.321 374.309 207.754 380.309 209.111 382.217 210.739 375.518 213.34 380.946 213.387 385.494 215.244 391.423 216.967 371.549 217.37 371.079 217.918 373.48 220.724 370.716 220.982 387.974 221.863 381.171 223.767 384.563 224.724 371.676 226.627 376.81 226.98 381.877 228.251 370.415 230.478 383.515 230.29 388.654 231.986 387.657 233.243 375.513 234.565 380.923 235.854 373.112 236.635 384.933 238.989 376.982 240.943 376.579 240.364 373.855 243.603 372.73 243.744 386.929 244.836 381.86 245.922 384.432 247.919 385.032 248.072 388.032 251.421 389.93 250.709 383.512 253.485 368.139 253.491 391.375 255.285 383.519 257.665 387.523 258.51 380.135 259.267 369.825 259.682 385.339 262.819 384.989 263.348 390.716 264.33 389.199 266.07 374.906 267.552 385.063 268.687 388.583 269.232 378.597 271.818 372.818 271.976 374.94 273.981 388.13 274.265 375.546 276.285 373.988 276.342 369.368 279.289 390.828 278.677 379.629 281.155 372.738 283.008 382.964 283.172 369.611 285.713 371.345 286.614 388.257 288.213 384.632 287.813 370.916 288.799 391.07 290.833 374.21 292.316 382.298 294.476 383.727 295.186 383.277 296.509 379.825 296.746 385.533 298.258 384.523 299.021 372.446 301.484 376.333 301.453 379.667 303.472 378.697 304.877 390.567 305.314 374.449 308.144 368.803 309.623 385.968 311.075 376.588 310.746 372.198 312.885 388.959 314.06 384.69 314.294 379.629 317.166 380.993 317.181 388.672 318.382 386.751 319.426 384.17 320.712 376.818 321.888 381.162 323.036 374.33 326.39 374.481 327.38 370.445 328.66 373.581 330.023 373.39 330.611 369.722 331.163 369.903 333.723 390.039 334.164 374.084 335.291 380.382 336.828 380.972 337.101 370.557 340.38 379.901 339.784 371.978 342.299 387.537 343.031 387.397 345.371 373.661 345.412 374.151 347.189 377.971 347.571 379.411 349.862 391.25 351.342 370.027 352.91 372.704 352.546 368.649 355.73 380.532 356.924 371.088 356.806 384.943 358.75 379.715 360.334 380.023 361.098 380.415 362.937 372.931 363.007 373.394 364.864 382.491 366.786 378.465 367.349 369.668 369.718 377.648 369.066 391.42 372.119 374.472 372.38 371.335 374.446 383.244 374.126 389.361 377.369 381.419 377.289 371.591 378.51 376.014 380.062 376.236 381.807 389.264 381.667 385.024 384.718 389.209 385.626 381.545 386.925 374.101 388.471 391.532 387.888 372.967 390.178 377.427 391.975 388.212 393.487 390.12 395.181 380.029 395.363 381.85 396.097 378.305 397.461 371.12 398.205 369.057 400.169 382.208 400.665 377.957 402.84 378.434 404.719 370.434 405.413 380.16 407.382 386.135 408.55 372.849 409.859 370.869 410.348 375.116 413.04 383.157 413.724 387.458 413.602 381.038 415.044 371.39 416.066 382.697 419.297 371.864 419.579 387.753 420.664 373.632 423.053 371.465 423.743 380.784 423.828 380.572 426.735 391.196 426.527 380.531 427.617 371.873 430.376 378.776 431.556 388.452 431.834 387.598 433.858 381.079 434.619 390.669 436.306 387.67 437.179 379.405 437.555 380.509 439.16 387.975 440.122 372.042 442.419 377.458 443.155 391.264 445.548 386.139 446.271 389.229 446.58 373.535 448.454 387.62 451.187 371.795 452.203 376.95 453.484 379.711 454.076 371.464 455.495 380.947 456.924 391.639 456.794 387.368 458.813 389.948 460.701 370.97 460.611 371.241 462.752 386.015 465 379.686 464.876 373.081 467.613 371.999 467.474 388.61"/><polyline fill="none" stroke="#222" points=".35 413.237 2.071 398.937 4.24 396.825 5.387 391.201 5.89 395.504 6.906 408.646 9.338 403.155 9.157 404.251 10.654 414.439 11.573 399.561 12.044 410.253 13.424 402.499 15.497 400.713 16.735 413.462 18.788 407.699 19.555 398.457 20.509 402.658 20.56 400.944 23.079 391.222 23.259 413.745 25.007 407.8 26.975 399.632 27.006 408.399 28.928 391.076 29.569 413.282 31.463 396.256 32.325 413.346 33.499 400.809 33.542 412.337 34.881 402.577 37.471 396.466 37.78 393.394 39.473 393.203 41.591 413.889 41.717 398.725 42.226 392.718 45.184 404.329 44.373 408.839 46.77 410.549 47.945 396.238 48.957 411.188 49.468 406.003 52.158 394.722 52.532 411.444 54.184 400.685 53.884 409.803 56.317 410.809 57.174 409.659 58.97 401.992 60.124 393.508 61.624 400.035 61.397 392.602 62.635 412.054 64.739 410.625 65.512 413.416 66.252 412.247 67.043 412.123 68.286 411.787 69.928 395.286 71.183 394.079 72.928 395.172 74.61 395.533 76.089 402.299 76.854 392.981 76.725 405.345 78.216 414.212 80.529 408.722 80.317 393.078 81.712 391.769 83.463 392.446 84.155 392.179 86.919 395.634 87.037 398.141 89.57 391.393 90.674 400.371 91.543 401.112 92.816 408.019 92.954 411.04 94.391 399.512 94.71 411.801 96.877 406.115 98.55 391.921 99.227 410.305 100.155 392.367 101.096 391.241 103.879 400.773 105.038 414.251 106.163 406.747 107.329 405.127 107.114 399.356 109.492 399.374 109.125 410.405 111.911 396.832 112.205 391.12 112.573 414.773 114.459 405.255 116.095 410.119 116.976 401.535 117.303 395.146 118.753 394.555 120.921 414.8 121.447 411.754 123.533 398.929 124.251 403.185 124.539 405.068 127.274 397.132 127.609 411.682 128.148 402.492 129.864 403.083 131.732 413.207 133.621 401.367 134.098 409.232 135.525 400.36 137.053 400.104 136.651 395.657 138.065 408.741 139.998 410.191 140.516 413.638 142.275 409.26 143.849 401.753 144.731 392.154 145.713 399.476 147.744 406.432 147.697 407.161 148.873 412.672 149.856 399.15 151.5 413.727 153.462 407.99 155.201 406.681 154.431 397.88 156.361 414.422 158.587 394.348 159.084 410.48 161.357 402.789 160.987 407.248 163.191 408.267 163.371 414.156 164.078 402.272 166.457 405.787 168.479 408.672 167.709 392.516 170.891 408.9 171.937 406.674 173.045 403.671 173.351 405.974 173.866 403.967 176.851 406.463 177.862 402.69 178.448 391.239 179.196 392.294 179.835 413.148 182.111 391.657 183.772 393.121 184.949 408.135 185.422 413.11 187.519 413.678 187.804 391.883 188.266 398.705 190.678 414.014 192.068 410.012 192.142 412.684 193.07 409.238 194.085 408.099 196.778 392.987 197.344 391.193 198.466 393.113 200.744 412.894 200.406 398.128 201.758 412.49 204.115 404.744 203.893 407.132 206.853 413.391 206.676 408.291 208.42 410.062 208.935 395.872 209.66 402.68 210.726 405.691 213.019 414.132 214.969 393.333 215.591 408.675 215.484 407.013 217.789 392.497 219.219 406.879 220.359 400.027 220.653 408.108 223.605 396.912 224.444 393.626 224.76 405.847 225.056 407.243 227.882 402.456 229.529 394.352 230.608 393.535 231.98 410.181 232.254 399.031 233.519 404.945 234.646 406.508 236.425 393.854 237.925 395.71 237.768 394.246 238.65 402.594 239.955 400.581 242.675 392.766 243.63 397.214 243.23 411.356 244.933 395.472 246.182 397.446 248.602 394.691 248.921 414.488 249.489 411.545 251.591 412.323 252.684 409.193 253.892 406.286 254.107 394.899 256.059 401.557 257.603 395.345 258.292 405.659 258.779 394.179 261.514 401.411 261.229 413.184 262.259 413.537 265.088 404.876 266.448 401.186 266.238 405.798 268.967 408.325 268.54 407.301 269.353 404.385 270.968 399.014 272.199 410.946 273.163 404.397 274.985 405.643 276.317 412.796 278.342 406.374 278.806 403.309 278.97 395.028 280.826 402.636 281.668 408.73 284.371 414.665 283.839 398.704 285.937 404.865 287.43 414.806 288.809 410.022 289.921 393.867 289.719 393.229 291.856 404.109 293.15 402.759 295.001 400.364 296.551 392.745 295.821 392.995 298.353 393.099 299.259 411.191 299.876 402.941 302.02 400.943 301.972 399.018 304.51 402.572 304.894 409.881 305.343 409.203 306.451 408.042 309.462 401.182 309.688 401.903 310.44 394.712 312.053 414.334 312.971 392.235 315.095 409.55 316.194 412.891 316.062 392.02 319.351 410.477 318.998 401.7 321.366 392.49 321.934 392.848 323.206 401.194 323.312 409.149 325.341 407.878 326.156 393.688 327.362 402.168 329.245 393.912 329.746 395.143 331.618 414.492 331.682 394.041 334.077 411.584 334.631 410.372 335.259 412.777 336.559 413.515 339.435 398.859 339.098 404.039 341.645 406.872 341.652 394.357 342.495 394.329 343.695 403.647 345.199 393.346 346.979 407.683 348.831 398.015 349.387 408.162 350.013 406.255 351.459 412.709 352.439 391.246 354.873 397.837 355.52 402.95 356.609 401.032 358.231 413.24 359.773 398.057 359.503 402.057 360.698 403.52 362.836 395.92 363.613 405.177 365.714 411.454 366.166 412.312 368.114 409.597 368.902 398.459 370.506 412.384 371.073 398.471 372.406 402.236 372.928 392.258 373.47 409.025 375.437 407.995 376.547 411.575 378.695 393.687 378.474 408.212 379.58 393.809 381.647 408.667 382.558 406.441 383.592 412.341 385.893 402.957 385.747 406.56 386.734 409.259 389.681 410.303 390.371 408.407 391.557 410.751 392.891 404.605 393.363 394.746 394.564 391.397 396.971 394.007 397.971 405.573 397.817 411.611 399.671 411.139 400.832 399.664 402.481 413.986 404.028 412.155 404.177 405.427 406.143 401.403 407.484 397.588 408.994 412.013 408.306 392.387 411.238 406.487 412.644 402.663 413.231 391.657 415.053 413.913 415.88 398.203 415.907 393.583 417.12 408.665 417.858 410.176 420.616 409.015 421.263 402.837 422.533 402.039 424.05 414.39 424.899 402.029 425.663 394.521 427.199 395.206 428.056 408.009 428.928 396.123 430.498 406.215 432.1 401.526 432.351 411.566 434.118 410.695 434.692 394.228 435.978 405.261 437.347 403.15 439.548 400.426 440.96 395.81 440.72 394.373 443.293 414.503 443.134 409.411 444.118 392.059 447.071 392.188 447.589 411.283 447.886 410.67 450.858 407.718 450.153 391.608 451.891 403.814 452.64 392.072 455.054 394.227 456.9 392.76 456.274 408.438 457.744 409.427 459.427 405.818 459.676 409.385 461.332 404.191 463.145 410.382 464.42 414.728 466.221 400.062 465.818 414.334 468.114 391.139 468.382 411.081"/><polyline fill="none" stroke="#222" points=".036 428.519 1.134 426.692 3.642 435.089 5.272 428.516 4.558 436.053 7.718 421.506 7.677 415.922 9.274 429.26 9.091 436.54 11.72 428.066 13.03 429.877 13.637 437.965 14.654 426.872 16.427 422.659 16.138 435.245 17.98 427.831 19.985 424.924 20.958 418.163 20.894 418.589 23.337 421.243 24.434 415.445 25.269 415.412 25.356 433.625 26.248 422.429 27.227 416.164 28.783 433.864 31.161 426.164 31.763 420.964 31.794 432.205 33.845 417.039 35.027 422.214 36.398 431.046 36.712 420.057 38.111 431.98 40.47 437.619 41.092 420.885 41.49 427.97 42.701 436.759 43.095 432.681 45.709 435.923 46.009 423.2 47.572 423.563 49.134 429.728 50.696 424.856 51.768 428.02 52.134 431.168 52.808 414.521 53.986 417.453 55.132 424.618 57.47 417.489 58.607 433.103 58.349 421.173 60.192 433.89 61.457 415.779 63 433.224 62.988 417.931 64.706 425.483 65.217 416.502 65.666 422.612 67.072 429.428 69.087 427.469 70.689 429.569 71.692 426.679 72.375 427.817 73.293 437.408 74.356 416.511 75.779 419.371 77.098 434.389 78.727 432.939 78.142 415.483 80.924 424.306 82.243 431.528 82.597 415.508 83.726 426.323 83.861 418.645 85.809 428.017 87.688 425.124 89.001 430.022 90.285 426.66 91.135 435.042 92.504 425.827 91.611 434.954 94.755 416.927 94.542 414.065 97.004 428.871 96.618 425.69 97.769 435.433 99.596 415.23 99.679 415.258 100.734 415.742 102.598 418.388 104.776 427.839 104.16 415.467 106.379 423.395 108.081 428.002 109.009 424.218 108.567 430.234 110.954 427.362 111.734 420.68 113.282 430.083 113.391 417.551 114.221 421.395 115.386 432.699 116.72 426.44 119.268 418.736 120.676 422.113 121.729 425.781 123.051 435.44 122.945 425.525 124.646 428.886 125.365 415.1 127.035 419.722 127.161 426.504 129.739 419.835 130.982 417.482 130.567 425.598 132.05 420.986 133.592 419.009 134.229 425.671 136.623 419.412 136.735 420.904 137.72 421.109 138.816 433.344 140.622 427.437 141.903 431.68 142.933 425.509 144.204 435.796 144.129 423.72 146.273 421.356 145.947 423.577 148.705 417.885 148.806 426.726 151.111 429.153 151.185 414.5 151.592 416.582 154.216 426.512 154.435 431.714 155.16 423.117 156.787 434.812 158.572 428.098 159.277 425.72 161.071 432.448 160.886 426.129 162.95 424.64 163.318 418.035 164.2 419.02 166.954 421.707 166.202 414.443 168.922 432.398 170.44 419.09 170.484 421.463 171.695 415.392 173.927 421.288 174.287 428.557 175.728 434.876 175.86 418.105 178.012 433.788 179.163 424.746 180.186 429.078 180.169 426.289 181.801 428.62 183.099 426.547 184.033 422.283 185.888 418.251 186.832 421.18 186.613 426.794 189.051 437.347 188.86 418.8 190.139 422.718 191.09 429.089 194.069 422.774 193.441 419.996 194.463 435.019 197.63 415.59 198.635 422.162 199.832 430.125 200.685 424.296 200.227 423.09 202.906 427.824 203.856 417.349 204.287 422.153 205.747 433.72 207.712 414.629 207.95 433.96 209.335 436.325 211.126 422.937 210.669 428.339 211.583 425.842 212.778 418.659 214.144 432.442 216.272 435.82 218.015 422.2 217.716 419.341 218.524 429.768 220.408 430.484 221.783 430.163 222.679 418.897 222.982 431.419 225.92 423.668 225.124 436.291 228.215 426.929 227.684 429.876 229.726 421.451 231.242 422.822 230.794 429.9 232.826 422.5 234.084 416.175 235.711 429.5 235.248 419.7 237.966 414.453 237.676 434.467 238.943 434.856 240.057 425.744 242.879 431.514 243.011 422.604 243.989 422.685 245.61 434.066 246.619 414.111 246.945 414.197 249.283 436.928 250.573 432.612 251.414 434.868 251.007 421.426 253.403 427.849 253.899 418.156 255.628 430.006 256.597 414.166 258.173 433.32 258.048 427.861 260.535 427.342 260.974 415.35 262.118 427.845 262.915 427.951 264.176 434.766 265.673 429.761 267.749 422.078 267.023 432.488 269.296 437.399 270.112 419.051 270.93 429.652 271.421 431.444 273.827 430.15 275.497 421.434 275.339 432.808 277.208 426.036 277.388 425.053 278.736 426.88 279.924 430.013 280.786 418.321 281.7 429.938 283.079 432.532 285.759 420.536 285.652 424.718 287.799 417.985 287.227 423.508 290.361 418.987 291.436 427.568 290.825 437.662 293.744 415.975 294.208 435.538 295.282 425.069 296.253 425.033 297.832 418.876 298.308 414.725 300.489 422.299 299.84 414.915 301.359 426.894 303.555 421.503 303.073 436.641 304.211 422.826 306.23 431.533 306.992 435.633 309.572 423.454 309.948 424.726 309.866 424.437 312.95 427.707 312.621 432.393 315.225 421.861 315.418 437.745 317.04 435.729 318.267 425.155 318.457 425.894 319.377 426.352 320.296 424.955 322.981 423.364 322.834 426.417 323.452 420.717 325.015 421.584 326.549 434.744 328.616 418.737 329.386 436.702 329.421 434.984 330.718 426.291 331.974 437.73 333.943 421.707 335.133 433.858 335.333 429.81 336.737 428.371 337.641 435.976 339.657 426.285 340.823 420.391 341.979 419.237 341.677 415.403 342.823 418.673 343.653 430.089 345.953 417.55 346.911 425.114 348.875 425.593 349.341 423.783 351.164 423.285 351.181 433.244 352.452 420.299 354.312 430.412 355.726 417.872 355.868 433.556 357.322 418.098 357.509 421.332 360.273 416.648 359.91 414.142 361.457 419.993 363.744 432.221 364.686 428.882 365.677 437.458 365.539 432.239 366.532 436.988 369.286 415.004 369.652 419.395 370.91 425.205 372.229 422.599 373.823 428.676 374.67 428.06 376.069 425.596 376.644 426.164 377.234 417.492 378.733 418.096 379.409 416.963 380.438 426.439 381.68 430.877 383.919 434.608 383.874 431.783 386.449 433.918 386.561 429.306 387.378 427.111 388.876 428.066 390.704 434.286 390.804 420.298 392.294 425.288 393.385 427.309 395.148 432.532 395.686 415.23 396.743 435.909 397.049 415.786 398.859 427.808 400.359 434.763 401.004 424.333 401.534 426.44 404.081 437.783 405.438 414.877 406.315 436.971 405.998 422.269 408.937 416.743 409.828 431.866 410.341 421.744 411.417 416.67 412.267 416.607 413.278 415.442 414.378 424.974 416.076 423.593 416.958 422.49 418.859 418.665 420.35 434.027 420.138 431.569 421.729 418.297 422.589 422.174 423.649 426.38 425.513 420.364 425.33 428.327 426.942 431.707 429.289 432.006 429.344 414.184 430.38 426.816 431.642 425.356 433.209 421.478 434.805 419.379 434.655 429.328 437.088 414.273 437.985 419.617 438.236 431.243 440.345 423.072 440.33 437.374 440.877 433.135 442.219 423.936 443.432 416.839 445.967 435.174 445.898 430.228 447.163 425.741 449.3 420.952 450.437 429.95 451.529 420.584 451.116 432.218 452.908 437.033 454.248 432.403 455.722 420.503 456.369 420.411 457.09 433.98 458.203 415.568 459.836 422.362 461.67 425.89 461.919 433.623 463.636 426.23 464.208 437.879 464.827 434.556 466.573 414.083 468.549 426.86 468.155 435.642"/><polyline fill="none" stroke="#222" points=".744 438.912 2.334 441.079 3.27 447.885 3.804 447.41 5.444 460.928 6.338 448.289 8.43 437.771 8.478 441.854 9.446 459.23 11.292 437.675 12.287 445.493 12.461 444.892 13.845 454.356 14.48 439.575 15.363 453.782 17.533 444.291 18.827 459.04 19.557 444.345 20.226 459.672 22.008 453.677 22.434 460.293 23.52 447.778 24.962 454.696 26.424 439.261 27.179 438.229 28.679 440.722 28.375 455.921 29.525 437.821 30.435 441.25 32.82 448.18 33.884 459.273 35.205 440.792 36.057 460.928 35.441 448.402 37.156 454.653 39.411 444.978 39.534 440.034 40.733 451.898 42.662 457.158 43.72 446.613 43.645 450.923 45.925 443.381 45.927 454.549 48.12 443.32 48.947 441.897 49.784 450.03 50.373 444.694 51.88 458.662 52.647 454.838 52.752 449.468 54.126 460.984 55.088 443.967 57.506 447.449 58.059 452.4 58.211 450.548 59.088 455.053 60.198 437.479 61.359 452.339 64.172 440.889 64.029 455.099 65.927 451.999 66.033 445.412 67.278 438.429 68.828 443.962 70.564 456.755 70.407 449.159 72.255 442.452 72.459 451.322 73.256 437.009 75.287 444.028 76.963 453.275 76.62 456.615 77.714 437.483 80.032 460.361 80.62 445.724 80.916 439.908 81.849 444.812 82.52 447.426 84.264 439.967 86.634 439.174 86.28 446.479 88.435 455.634 87.976 440.263 90.045 452.326 91.652 452.907 91.896 437.744 92.792 441.836 94.282 456.174 95.568 452.363 95.615 440.58 96.578 451.903 98.37 459.078 99.158 438.585 99.797 447.248 101.225 458.801 102.607 453.438 103.398 444.687 104.834 449.861 105.325 447.181 106.826 460.486 107.993 458.223 109.105 444.39 110.839 439.867 112.185 454.584 111.797 458.429 112.841 459.12 114.18 443.232 116.455 437.225 116.59 454.03 116.801 448.166 119.076 452.798 119.493 449.102 120.247 452.887 122.486 445.462 124.086 443.958 124.37 444.121 125.677 457.468 125.745 443.356 127.891 456.629 128.251 454.032 130.571 443.816 130.81 458.144 130.9 446.658 132.285 459.899 133.293 446.529 135.125 445.476 136.759 456.771 137.863 441.489 137.684 455.859 138.266 440.399 140.514 452.833 140.356 438.03 142.343 450.533 144.072 456.776 143.975 452.508 145.909 439.638 147.612 442.101 147.501 453.337 149.073 446.663 149.841 450.142 150.841 452.544 152.538 449.458 154.137 458.186 154.526 452.543 154.416 441.047 155.964 446.528 157.647 442.381 158.674 450.714 158.664 441.963 160.902 445.629 162.053 441.735 163.536 456.854 163.468 442.774 164.408 446.437 165.559 456.534 166.649 449.593 167.506 437.023 168.665 440.103 171.172 446.745 171.683 448.92 172.717 447.367 174.246 456.181 174.082 456 174.619 459.872 177.598 455.842 178.436 458.315 178.808 439.212 180.296 454.676 180.987 438.218 181.472 450.779 182.406 437.936 183.405 448.274 184.592 452.988 185.468 456.686 187.684 454.689 189.451 446.629 189.179 447.156 189.967 456.067 191.452 452.581 193.351 438.929 194.261 450.846 195.835 452.614 195.009 444.655 196.993 450.091 197.668 453.833 199.61 446.346 200.491 446.782 201.907 448.339 201.984 447.283 203.785 460.888 205.181 454.57 206.377 450.566 206.043 440.038 207.168 442.194 208.183 441.821 210.525 452.985 210.994 455.262 212.495 460.428 212.749 442.966 214.457 439.207 215.424 438.051 216.654 446.147 218.166 457.649 217.634 457.275 219.417 445.372 220.543 458.47 220.987 453.135 222.199 450.712 224.655 460.241 225.466 447.073 225.388 451.923 227.333 444.866 229.073 460.952 229.372 446.466 229.367 446.169 232.233 448.217 232.189 459.074 233.129 451.985 233.837 457.093 236.158 460.937 236.974 457.349 237.657 437.932 237.784 455.789 240.265 448.285 240.099 439.929 242.864 457.797 243.92 438.218 243.914 458.722 245.025 446.811 245.868 458.407 246.47 442.58 248.374 449.461 249.978 458.847 251.507 452.88 252.229 447.459 253.623 447.401 254.753 446.652 254.271 458.013 256.533 452.44 257.132 440.743 257.487 439.389 258.773 449.273 260.603 442.208 260.762 451.309 261.681 441.229 262.63 445.86 264.936 448.674 266.236 441.021 266.932 459.928 268.041 454.258 269.125 456.878 270.655 459.164 270.96 440.775 270.956 439.935 272.447 438.689 274.008 439.248 274.769 440.852 276.38 452.463 277.635 454.043 278.933 443.911 279.076 439.724 280.707 459.18 281.344 457.761 282.504 442.495 283.875 442.717 285.173 439.644 285.936 439.502 286.539 450.586 288.008 460.606 290.05 446.88 290.677 442.483 290.302 437.649 291.354 458.205 293.316 444.007 294.612 438.378 295.816 443.575 296.963 443.239 297.532 451.361 298.024 445.16 300.785 457.169 301.818 450.347 302.58 454.405 302.431 437.026 304.867 442.959 305.414 453.591 307.171 455.011 307.923 445.014 307.745 459.376 310.105 451.267 310.318 448.829 312.532 452.854 313.576 445.879 313.393 454.988 313.785 459.965 315.062 448.977 317.857 449.443 317.608 445.433 319.088 446.884 321.157 447.694 321.999 441.661 321.334 459.521 323.372 443.062 324.264 453.637 326.246 452.515 327.594 441.95 327.301 444.188 329.089 443.156 330.004 442.59 331.383 453.368 332.626 438.624 332.867 455.866 334.281 454.973 335.858 457.106 337.039 439.161 338.339 453.691 338.775 453.618 340.348 451.492 340.519 454.84 341.506 448.689 343.192 451.127 343.266 456.087 344.791 448.33 346.115 450.334 347.426 454.284 347.506 442.318 349.147 443.238 350.172 455.682 351.684 457.45 351.96 439.567 353.274 450.997 355.401 449.615 354.619 454.484 355.704 460.046 358.359 449.067 357.757 443.847 360.527 448.834 360.289 449.436 362.245 447.425 363.789 438.785 364.006 439.183 365.716 458.404 365.219 446.646 367.625 454.461 368.748 437.535 369.048 448.196 371.324 447.917 371.051 449.319 372.76 447.377 374.748 451.291 375.35 440.563 376.589 442.742 376.935 439.318 377.282 445.663 378.139 440.841 380.143 450.661 380.21 456.795 382.614 445.059 384.2 456.836 384.38 452.845 386.187 449.562 385.952 441.087 387.993 458.522 389.257 445.702 389.993 439.18 390.763 447.456 392.745 437.865 393.868 451.594 393.227 439.969 395.216 449.834 396.744 440.879 397.016 446.412 398.576 458.844 398.786 443.848 400.93 439.269 400.671 458.93 403.617 442.425 404.591 446.273 404.294 437.829 405.177 438.262 407.591 437.223 408.791 441.628 409.714 449.442 410.132 450.831 411.816 445.763 412.172 453.509 413.42 437.686 415.266 441.533 414.782 441.589 417.498 442.484 417.845 441.197 418.902 448.558 419.065 449.082 420.194 453.163 421.437 457.067 422.238 446.671 424.948 449.905 424.928 459.982 425.854 441.343 426.41 443.584 427.53 448.187 430.297 437.626 429.472 450.518 431.592 438.377 433.109 449.534 433.284 457.201 434.63 442.381 436.655 444.435 436.315 457.014 437.371 445.292 438.292 455.366 439.132 458.142 440.445 455.472 441.519 455.108 442.665 437.594 444.721 440.147 444.676 457.688 447.17 438.444 446.777 450.684 449.389 445.21 450.694 439.216 451.005 445.943 452.558 454.077 452.362 456.55 453.286 453.425 456.113 453.325 457.167 448.494 456.658 451.545 458.841 449.71 458.868 450.617 460.567 459.135 461.774 446.632 463.235 455.04 462.874 452.977 464.536 459.077 466.566 448.316 466.701 452.685 468.138 446.032 468.494 446.55"/></g></svg>